<svg viewBox="0 0 780 430" xmlns="http://www.w3.org/2000/svg" style="width:100%; height:auto;">

<defs>
  <marker id="arrow_navy" markerWidth="7" markerHeight="7" refX="6" refY="3.5" orient="auto"><path d="M0,0 L7,3.5 L0,7 Z" fill="#0B1D3A"/></marker>
  <marker id="arrow_teal" markerWidth="7" markerHeight="7" refX="6" refY="3.5" orient="auto"><path d="M0,0 L7,3.5 L0,7 Z" fill="#0B7285"/></marker>
  <marker id="arrow_gold" markerWidth="7" markerHeight="7" refX="6" refY="3.5" orient="auto"><path d="M0,0 L7,3.5 L0,7 Z" fill="#C9962A"/></marker>
  <marker id="arrow_green" markerWidth="7" markerHeight="7" refX="6" refY="3.5" orient="auto"><path d="M0,0 L7,3.5 L0,7 Z" fill="#166534"/></marker>
  <marker id="arrow_red" markerWidth="7" markerHeight="7" refX="6" refY="3.5" orient="auto"><path d="M0,0 L7,3.5 L0,7 Z" fill="#B91C1C"/></marker>
  <marker id="arrow_gray" markerWidth="7" markerHeight="7" refX="6" refY="3.5" orient="auto"><path d="M0,0 L7,3.5 L0,7 Z" fill="#6B7280"/></marker>
</defs>
<text x="26" y="28" text-anchor="start" font-family="JetBrains Mono, monospace" font-size="14" fill="#0B1D3A" font-weight="700">Supply Chain Finance Ecosystem</text>
<rect x="300" y="165" width="180" height="90" rx="2" fill="#F7F4EF" stroke="#0B7285" stroke-width="1.2"/>
<rect x="300" y="165" width="180" height="22" rx="2" fill="#0B7285" stroke="#0B7285" stroke-width="1.0"/>
<text x="390.0" y="180" text-anchor="middle" font-family="JetBrains Mono, monospace" font-size="8.2" fill="#FFFFFF" font-weight="700">SCF PROGRAM</text>
<text x="308" y="203" text-anchor="start" font-family="JetBrains Mono, monospace" font-size="7.2" fill="#6B7280" font-weight="400">product rules</text>
<text x="308" y="215" text-anchor="start" font-family="JetBrains Mono, monospace" font-size="7.2" fill="#6B7280" font-weight="400">eligibility</text>
<text x="308" y="227" text-anchor="start" font-family="JetBrains Mono, monospace" font-size="7.2" fill="#0B7285" font-weight="600">finance limits</text>
<rect x="50" y="175" width="150" height="76" rx="2" fill="#F7F4EF" stroke="#0B1D3A" stroke-width="1.2"/>
<rect x="50" y="175" width="150" height="22" rx="2" fill="#162B52" stroke="#162B52" stroke-width="1.0"/>
<text x="125.0" y="190" text-anchor="middle" font-family="JetBrains Mono, monospace" font-size="8.2" fill="#FFFFFF" font-weight="700">ANCHOR</text>
<text x="58" y="213" text-anchor="start" font-family="JetBrains Mono, monospace" font-size="7.2" fill="#6B7280" font-weight="400">large buyer/seller</text>
<text x="58" y="225" text-anchor="start" font-family="JetBrains Mono, monospace" font-size="7.2" fill="#0B7285" font-weight="600">risk reference</text>
<rect x="580" y="175" width="150" height="76" rx="2" fill="#F7F4EF" stroke="#0B1D3A" stroke-width="1.2"/>
<rect x="580" y="175" width="150" height="22" rx="2" fill="#162B52" stroke="#162B52" stroke-width="1.0"/>
<text x="655.0" y="190" text-anchor="middle" font-family="JetBrains Mono, monospace" font-size="8.2" fill="#FFFFFF" font-weight="700">COUNTERPARTY</text>
<text x="588" y="213" text-anchor="start" font-family="JetBrains Mono, monospace" font-size="7.2" fill="#6B7280" font-weight="400">supplier / buyer</text>
<text x="588" y="225" text-anchor="start" font-family="JetBrains Mono, monospace" font-size="7.2" fill="#0B7285" font-weight="600">SME participant</text>
<rect x="310" y="45" width="160" height="74" rx="2" fill="#F7F4EF" stroke="#166534" stroke-width="1.2"/>
<rect x="310" y="45" width="160" height="22" rx="2" fill="#166534" stroke="#166534" stroke-width="1.0"/>
<text x="390.0" y="60" text-anchor="middle" font-family="JetBrains Mono, monospace" font-size="8.2" fill="#FFFFFF" font-weight="700">BANK</text>
<text x="318" y="83" text-anchor="start" font-family="JetBrains Mono, monospace" font-size="7.2" fill="#6B7280" font-weight="400">program owner</text>
<text x="318" y="95" text-anchor="start" font-family="JetBrains Mono, monospace" font-size="7.2" fill="#0B7285" font-weight="600">financing control</text>
<rect x="310" y="320" width="160" height="74" rx="2" fill="#F7F4EF" stroke="#C9962A" stroke-width="1.2"/>
<rect x="310" y="320" width="160" height="22" rx="2" fill="#C9962A" stroke="#C9962A" stroke-width="1.0"/>
<text x="390.0" y="335" text-anchor="middle" font-family="JetBrains Mono, monospace" font-size="8.2" fill="#FFFFFF" font-weight="700">INVOICE POOL</text>
<text x="318" y="358" text-anchor="start" font-family="JetBrains Mono, monospace" font-size="7.2" fill="#6B7280" font-weight="400">cashflows</text>
<text x="318" y="370" text-anchor="start" font-family="JetBrains Mono, monospace" font-size="7.2" fill="#0B7285" font-weight="600">trade documents</text>
<line x1="200" y1="213" x2="299" y2="213" stroke="#0B1D3A" stroke-width="1.2" marker-end="url(#arrow_navy)"/>
<text x="250" y="205" text-anchor="middle" font-family="JetBrains Mono, monospace" font-size="6.7" fill="#0B1D3A" font-weight="400">program relationship</text>
<line x1="480" y1="213" x2="579" y2="213" stroke="#0B1D3A" stroke-width="1.2" marker-end="url(#arrow_navy)"/>
<text x="530" y="205" text-anchor="middle" font-family="JetBrains Mono, monospace" font-size="6.7" fill="#0B1D3A" font-weight="400">eligible operations</text>
<line x1="390" y1="119" x2="390" y2="164" stroke="#166534" stroke-width="1.2" marker-end="url(#arrow_green)"/>
<text x="428" y="144" text-anchor="middle" font-family="JetBrains Mono, monospace" font-size="6.7" fill="#166534" font-weight="400">governance</text>
<line x1="390" y1="320" x2="390" y2="256" stroke="#C9962A" stroke-width="1.2" marker-end="url(#arrow_gold)"/>
<text x="440" y="296" text-anchor="middle" font-family="JetBrains Mono, monospace" font-size="6.7" fill="#C9962A" font-weight="400">invoice evidence</text>
<path d="M 580,251 L 580,285 L 200,285 L 200,252" fill="none" stroke="#6B7280" stroke-width="1.2" marker-end="url(#arrow_gray)"/>
<text x="390" y="278" text-anchor="middle" font-family="JetBrains Mono, monospace" font-size="6.7" fill="#6B7280" font-weight="400">goods / services and invoice exchange</text>
</svg>
