<svg viewBox="0 0 770 325" xmlns="http://www.w3.org/2000/svg" style="width:100%; height:auto;">

  <defs>
    <marker id="arrow_navy" markerWidth="7" markerHeight="7" refX="6" refY="3.5" orient="auto">
      <path d="M0,0 L7,3.5 L0,7 Z" fill="#0B1D3A"/>
    </marker>
    <marker id="arrow_gray" markerWidth="7" markerHeight="7" refX="6" refY="3.5" orient="auto">
      <path d="M0,0 L7,3.5 L0,7 Z" fill="#6B7280"/>
    </marker>
    <marker id="arrow_green" markerWidth="7" markerHeight="7" refX="6" refY="3.5" orient="auto">
      <path d="M0,0 L7,3.5 L0,7 Z" fill="#166534"/>
    </marker>
    <marker id="arrow_gold" markerWidth="7" markerHeight="7" refX="6" refY="3.5" orient="auto">
      <path d="M0,0 L7,3.5 L0,7 Z" fill="#C9962A"/>
    </marker>
  </defs>

  <text x="25" y="30" font-family="JetBrains Mono, monospace" font-size="14" fill="#0B1D3A" font-weight="700">Daily Development and Validation Workflow</text>
  <rect x="25" y="120" width="120" height="74" rx="2" fill="#F7F4EF" stroke="#0B1D3A" stroke-width="1.5"/>
  <rect x="25" y="120" width="120" height="22" rx="2" fill="#162B52"/>
  <text x="85.0" y="135" text-anchor="middle" font-family="JetBrains Mono, monospace" font-size="9" fill="white" font-weight="600">JIRA</text>
  <text x="33" y="158" font-family="JetBrains Mono, monospace" font-size="7.5" fill="#6B7280" font-weight="400">ticket assigned</text>
  <text x="33" y="171" font-family="JetBrains Mono, monospace" font-size="7.5" fill="#6B7280" font-weight="400">sprint scope</text>
  <rect x="175" y="120" width="120" height="74" rx="2" fill="#F7F4EF" stroke="#0B7285" stroke-width="1.5"/>
  <rect x="175" y="120" width="120" height="22" rx="2" fill="#0B7285"/>
  <text x="235.0" y="135" text-anchor="middle" font-family="JetBrains Mono, monospace" font-size="9" fill="white" font-weight="600">DEV</text>
  <text x="183" y="158" font-family="JetBrains Mono, monospace" font-size="7.5" fill="#6B7280" font-weight="400">backend/frontend</text>
  <text x="183" y="171" font-family="JetBrains Mono, monospace" font-size="7.5" fill="#0B7285" font-weight="600">implementation</text>
  <rect x="325" y="120" width="120" height="74" rx="2" fill="#F7F4EF" stroke="#0B7285" stroke-width="1.5"/>
  <rect x="325" y="120" width="120" height="22" rx="2" fill="#0B7285"/>
  <text x="385.0" y="135" text-anchor="middle" font-family="JetBrains Mono, monospace" font-size="9" fill="white" font-weight="600">BITBUCKET</text>
  <text x="333" y="158" font-family="JetBrains Mono, monospace" font-size="7.5" fill="#6B7280" font-weight="400">branch push</text>
  <text x="333" y="171" font-family="JetBrains Mono, monospace" font-size="7.5" fill="#6B7280" font-weight="400">PR opened</text>
  <rect x="475" y="120" width="120" height="74" rx="2" fill="#F7F4EF" stroke="#0B7285" stroke-width="1.5"/>
  <rect x="475" y="120" width="120" height="22" rx="2" fill="#0B7285"/>
  <text x="535.0" y="135" text-anchor="middle" font-family="JetBrains Mono, monospace" font-size="9" fill="white" font-weight="600">PR_REVIEW</text>
  <text x="483" y="158" font-family="JetBrains Mono, monospace" font-size="7.5" fill="#6B7280" font-weight="400">tech lead</text>
  <text x="483" y="171" font-family="JetBrains Mono, monospace" font-size="7.5" fill="#0B7285" font-weight="600">approve/request</text>
  <rect x="625" y="120" width="120" height="74" rx="2" fill="#F7F4EF" stroke="#0B1D3A" stroke-width="1.5"/>
  <rect x="625" y="120" width="120" height="22" rx="2" fill="#162B52"/>
  <text x="685.0" y="135" text-anchor="middle" font-family="JetBrains Mono, monospace" font-size="9" fill="white" font-weight="600">TESTER</text>
  <text x="633" y="158" font-family="JetBrains Mono, monospace" font-size="7.5" fill="#6B7280" font-weight="400">verification</text>
  <text x="633" y="171" font-family="JetBrains Mono, monospace" font-size="7.5" fill="#166534" font-weight="600">ticket closure</text>
  <line x1="145" y1="157" x2="174" y2="157" stroke="#0B1D3A" stroke-width="1.5" marker-end="url(#arrow_navy)"/>
  <line x1="295" y1="157" x2="324" y2="157" stroke="#0B1D3A" stroke-width="1.5" marker-end="url(#arrow_navy)"/>
  <line x1="445" y1="157" x2="474" y2="157" stroke="#0B1D3A" stroke-width="1.5" marker-end="url(#arrow_navy)"/>
  <line x1="595" y1="157" x2="624" y2="157" stroke="#0B1D3A" stroke-width="1.5" marker-end="url(#arrow_navy)"/>
  <rect x="475" y="245" width="120" height="48" rx="2" fill="#F0EDE8" stroke="#C9962A" stroke-width="1.5"/>
  <text x="535" y="265" text-anchor="middle" font-family="JetBrains Mono, monospace" font-size="8" fill="#C9962A" font-weight="600">MODIFICATION</text>
  <text x="483" y="281" font-family="JetBrains Mono, monospace" font-size="7.5" fill="#6B7280">comments returned</text>
  <path d="M 535,245 L 535,195" fill="none" stroke="#C9962A" stroke-width="1.5" marker-end="url(#arrow_gold)"/>
  <path d="M 475,269 L 235,269 L 235,195" fill="none" stroke="#C9962A" stroke-width="1.5" marker-end="url(#arrow_gold)"/>
  <text x="355" y="263" text-anchor="middle" font-family="JetBrains Mono, monospace" font-size="7" fill="#C9962A">review loop</text>

</svg>
