<svg viewBox="0 0 750 430" xmlns="http://www.w3.org/2000/svg" style="width:100%; height:auto;">

  <defs>
    <marker id="arrow_navy" markerWidth="7" markerHeight="7" refX="6" refY="3.5" orient="auto">
      <path d="M0,0 L7,3.5 L0,7 Z" fill="#0B1D3A"/>
    </marker>
    <marker id="arrow_gray" markerWidth="7" markerHeight="7" refX="6" refY="3.5" orient="auto">
      <path d="M0,0 L7,3.5 L0,7 Z" fill="#6B7280"/>
    </marker>
    <marker id="arrow_green" markerWidth="7" markerHeight="7" refX="6" refY="3.5" orient="auto">
      <path d="M0,0 L7,3.5 L0,7 Z" fill="#166534"/>
    </marker>
    <marker id="arrow_gold" markerWidth="7" markerHeight="7" refX="6" refY="3.5" orient="auto">
      <path d="M0,0 L7,3.5 L0,7 Z" fill="#C9962A"/>
    </marker>
  </defs>

  <!-- Coordinate table embedded in generator source. Last body text y values stay within each box. -->
  <text x="30" y="28" font-family="JetBrains Mono, monospace" font-size="14" fill="#0B1D3A" font-weight="700">Supply Chain Finance Ecosystem</text>
  <rect x="45" y="175" width="150" height="78" rx="2" fill="#F7F4EF" stroke="#0B1D3A" stroke-width="1.5"/>
  <rect x="45" y="175" width="150" height="22" rx="2" fill="#162B52"/>
  <text x="120.0" y="190" text-anchor="middle" font-family="JetBrains Mono, monospace" font-size="9" fill="white" font-weight="600">ANCHOR</text>
  <text x="53" y="213" font-family="JetBrains Mono, monospace" font-size="7.5" fill="#6B7280" font-weight="400">large buyer/seller</text>
  <text x="53" y="226" font-family="JetBrains Mono, monospace" font-size="7.5" fill="#6B7280" font-weight="400">commercial reference</text>
  <rect x="275" y="165" width="160" height="98" rx="2" fill="#F7F4EF" stroke="#0B7285" stroke-width="1.5"/>
  <rect x="275" y="165" width="160" height="22" rx="2" fill="#0B7285"/>
  <text x="355.0" y="180" text-anchor="middle" font-family="JetBrains Mono, monospace" font-size="9" fill="white" font-weight="600">SCF_PROGRAM</text>
  <text x="283" y="203" font-family="JetBrains Mono, monospace" font-size="7.5" fill="#6B7280" font-weight="400">product + limits</text>
  <text x="283" y="216" font-family="JetBrains Mono, monospace" font-size="7.5" fill="#6B7280" font-weight="400">fees + eligibility</text>
  <text x="283" y="229" font-family="JetBrains Mono, monospace" font-size="7.5" fill="#0B7285" font-weight="600">disbursement rules</text>
  <rect x="555" y="175" width="150" height="78" rx="2" fill="#F7F4EF" stroke="#0B1D3A" stroke-width="1.5"/>
  <rect x="555" y="175" width="150" height="22" rx="2" fill="#162B52"/>
  <text x="630.0" y="190" text-anchor="middle" font-family="JetBrains Mono, monospace" font-size="9" fill="white" font-weight="600">COUNTERPARTY</text>
  <text x="563" y="213" font-family="JetBrains Mono, monospace" font-size="7.5" fill="#6B7280" font-weight="400">supplier / SME</text>
  <text x="563" y="226" font-family="JetBrains Mono, monospace" font-size="7.5" fill="#6B7280" font-weight="400">distributor / buyer</text>
  <rect x="275" y="45" width="160" height="78" rx="2" fill="#F7F4EF" stroke="#0B1D3A" stroke-width="1.5"/>
  <rect x="275" y="45" width="160" height="22" rx="2" fill="#162B52"/>
  <text x="355.0" y="60" text-anchor="middle" font-family="JetBrains Mono, monospace" font-size="9" fill="white" font-weight="600">BANK</text>
  <text x="283" y="83" font-family="JetBrains Mono, monospace" font-size="7.5" fill="#6B7280" font-weight="400">program governance</text>
  <text x="283" y="96" font-family="JetBrains Mono, monospace" font-size="7.5" fill="#6B7280" font-weight="400">financing control</text>
  <rect x="275" y="330" width="160" height="78" rx="2" fill="#F7F4EF" stroke="#C9962A" stroke-width="1.5"/>
  <rect x="275" y="330" width="160" height="22" rx="2" fill="#C9962A"/>
  <text x="355.0" y="345" text-anchor="middle" font-family="JetBrains Mono, monospace" font-size="9" fill="white" font-weight="600">INSTRUMENTS</text>
  <text x="283" y="368" font-family="JetBrains Mono, monospace" font-size="7.5" fill="#6B7280" font-weight="400">invoices</text>
  <text x="283" y="381" font-family="JetBrains Mono, monospace" font-size="7.5" fill="#6B7280" font-weight="400">purchase orders</text>
  <text x="283" y="394" font-family="JetBrains Mono, monospace" font-size="7.5" fill="#0B7285" font-weight="600">trade documents</text>
  <line x1="195" y1="214" x2="274" y2="214" stroke="#0B1D3A" stroke-width="1.5" marker-end="url(#arrow_navy)"/>
  <text x="235" y="207" text-anchor="middle" font-family="JetBrains Mono, monospace" font-size="7" fill="#0B1D3A">program setup</text>
  <line x1="435" y1="214" x2="554" y2="214" stroke="#0B1D3A" stroke-width="1.5" marker-end="url(#arrow_navy)"/>
  <text x="495" y="207" text-anchor="middle" font-family="JetBrains Mono, monospace" font-size="7" fill="#0B1D3A">eligibility</text>
  <line x1="355" y1="123" x2="355" y2="164" stroke="#0B7285" stroke-width="1.5" marker-end="url(#arrow_green)"/>
  <text x="385" y="146" text-anchor="middle" font-family="JetBrains Mono, monospace" font-size="7" fill="#0B7285">validation</text>
  <line x1="355" y1="330" x2="355" y2="264" stroke="#C9962A" stroke-width="1.5" marker-end="url(#arrow_gold)"/>
  <text x="406" y="302" text-anchor="middle" font-family="JetBrains Mono, monospace" font-size="7" fill="#C9962A">cashflow input</text>
  <path d="M 555,253 L 555,292 L 195,292 L 195,254" fill="none" stroke="#6B7280" stroke-width="1.5" marker-end="url(#arrow_gray)"/>
  <text x="375" y="286" text-anchor="middle" font-family="JetBrains Mono, monospace" font-size="7" fill="#6B7280">goods / services + invoice</text>
  <line x1="435" y1="84" x2="554" y2="175" stroke="#166534" stroke-width="1.5" marker-end="url(#arrow_green)"/>
  <text x="502" y="124" text-anchor="middle" font-family="JetBrains Mono, monospace" font-size="7" fill="#166534">financing</text>
  <line x1="275" y1="84" x2="196" y2="175" stroke="#166534" stroke-width="1.5" marker-end="url(#arrow_green)"/>
  <text x="226" y="124" text-anchor="middle" font-family="JetBrains Mono, monospace" font-size="7" fill="#166534">payment flow</text>

</svg>
