<svg viewBox="0 0 775 325" xmlns="http://www.w3.org/2000/svg" style="width:100%; height:auto;">

  <defs>
    <marker id="arrow_navy" markerWidth="7" markerHeight="7" refX="6" refY="3.5" orient="auto">
      <path d="M0,0 L7,3.5 L0,7 Z" fill="#0B1D3A"/>
    </marker>
    <marker id="arrow_gray" markerWidth="7" markerHeight="7" refX="6" refY="3.5" orient="auto">
      <path d="M0,0 L7,3.5 L0,7 Z" fill="#6B7280"/>
    </marker>
    <marker id="arrow_green" markerWidth="7" markerHeight="7" refX="6" refY="3.5" orient="auto">
      <path d="M0,0 L7,3.5 L0,7 Z" fill="#166534"/>
    </marker>
    <marker id="arrow_gold" markerWidth="7" markerHeight="7" refX="6" refY="3.5" orient="auto">
      <path d="M0,0 L7,3.5 L0,7 Z" fill="#C9962A"/>
    </marker>
  </defs>

  <text x="25" y="30" font-family="JetBrains Mono, monospace" font-size="14" fill="#0B1D3A" font-weight="700">Internship Timeline</text>
  <line x1="50" y1="165" x2="720" y2="165" stroke="#0B1D3A" stroke-width="2"/>
  <circle cx="90" cy="165" r="7" fill="#0B7285" stroke="#0B1D3A" stroke-width="1"/>
  <circle cx="235" cy="165" r="7" fill="#0B7285" stroke="#0B1D3A" stroke-width="1"/>
  <circle cx="385" cy="165" r="7" fill="#0B7285" stroke="#0B1D3A" stroke-width="1"/>
  <circle cx="535" cy="165" r="7" fill="#0B7285" stroke="#0B1D3A" stroke-width="1"/>
  <circle cx="685" cy="165" r="7" fill="#166534" stroke="#0B1D3A" stroke-width="1"/>
  <rect x="30" y="218" width="120" height="82" rx="2" fill="#F7F4EF" stroke="#0B7285" stroke-width="1.5"/>
  <rect x="30" y="218" width="120" height="22" rx="2" fill="#0B7285"/>
  <text x="90.0" y="233" text-anchor="middle" font-family="JetBrains Mono, monospace" font-size="9" fill="white" font-weight="600">FEB_2026</text>
  <text x="38" y="256" font-family="JetBrains Mono, monospace" font-size="7.5" fill="#1A1A1A" font-weight="400">remote training</text>
  <text x="38" y="269" font-family="JetBrains Mono, monospace" font-size="7.5" fill="#6B7280" font-weight="400">business layer</text>
  <text x="38" y="282" font-family="JetBrains Mono, monospace" font-size="7.5" fill="#0B7285" font-weight="600">Java/Spring Boot</text>
  <rect x="175" y="55" width="120" height="82" rx="2" fill="#F7F4EF" stroke="#0B7285" stroke-width="1.5"/>
  <rect x="175" y="55" width="120" height="22" rx="2" fill="#0B7285"/>
  <text x="235.0" y="70" text-anchor="middle" font-family="JetBrains Mono, monospace" font-size="9" fill="white" font-weight="600">WEEK_3</text>
  <text x="183" y="93" font-family="JetBrains Mono, monospace" font-size="7.5" fill="#6B7280" font-weight="400">on-site work</text>
  <text x="183" y="106" font-family="JetBrains Mono, monospace" font-size="7.5" fill="#6B7280" font-weight="400">team integration</text>
  <text x="183" y="119" font-family="JetBrains Mono, monospace" font-size="7.5" fill="#0B7285" font-weight="600">delivery rhythm</text>
  <rect x="325" y="218" width="120" height="82" rx="2" fill="#F7F4EF" stroke="#0B7285" stroke-width="1.5"/>
  <rect x="325" y="218" width="120" height="22" rx="2" fill="#0B7285"/>
  <text x="385.0" y="233" text-anchor="middle" font-family="JetBrains Mono, monospace" font-size="9" fill="white" font-weight="600">SPRINTS</text>
  <text x="333" y="256" font-family="JetBrains Mono, monospace" font-size="7.5" fill="#6B7280" font-weight="400">Sprint 2 to 8</text>
  <text x="333" y="269" font-family="JetBrains Mono, monospace" font-size="7.5" fill="#6B7280" font-weight="400">Jira + PRs</text>
  <text x="333" y="282" font-family="JetBrains Mono, monospace" font-size="7.5" fill="#0B7285" font-weight="600">tester loop</text>
  <rect x="475" y="55" width="120" height="82" rx="2" fill="#F7F4EF" stroke="#C9962A" stroke-width="1.5"/>
  <rect x="475" y="55" width="120" height="22" rx="2" fill="#C9962A"/>
  <text x="535.0" y="70" text-anchor="middle" font-family="JetBrains Mono, monospace" font-size="9" fill="white" font-weight="600">MONDAYS</text>
  <text x="483" y="93" font-family="JetBrains Mono, monospace" font-size="7.5" fill="#6B7280" font-weight="400">PO refinement</text>
  <text x="483" y="106" font-family="JetBrains Mono, monospace" font-size="7.5" fill="#6B7280" font-weight="400">functional</text>
  <text x="483" y="119" font-family="JetBrains Mono, monospace" font-size="7.5" fill="#0B7285" font-weight="600">diagrams</text>
  <rect x="625" y="218" width="120" height="82" rx="2" fill="#F7F4EF" stroke="#166534" stroke-width="1.5"/>
  <rect x="625" y="218" width="120" height="22" rx="2" fill="#166534"/>
  <text x="685.0" y="233" text-anchor="middle" font-family="JetBrains Mono, monospace" font-size="9" fill="white" font-weight="600">JUL_01</text>
  <text x="633" y="256" font-family="JetBrains Mono, monospace" font-size="7.5" fill="#6B7280" font-weight="400">internship end</text>
  <text x="633" y="269" font-family="JetBrains Mono, monospace" font-size="7.5" fill="#166534" font-weight="600">report synthesis</text>
  <line x1="90" y1="172" x2="90" y2="217" stroke="#1A1A1A" stroke-width="1"/>
  <line x1="235" y1="164" x2="235" y2="138" stroke="#1A1A1A" stroke-width="1"/>
  <line x1="385" y1="172" x2="385" y2="217" stroke="#1A1A1A" stroke-width="1"/>
  <line x1="535" y1="164" x2="535" y2="138" stroke="#1A1A1A" stroke-width="1"/>
  <line x1="685" y1="172" x2="685" y2="217" stroke="#1A1A1A" stroke-width="1"/>

</svg>
