<svg viewBox="0 0 780 330" xmlns="http://www.w3.org/2000/svg" style="width:100%; height:auto;">

<defs>
  <marker id="arrow_navy" markerWidth="7" markerHeight="7" refX="6" refY="3.5" orient="auto"><path d="M0,0 L7,3.5 L0,7 Z" fill="#0B1D3A"/></marker>
  <marker id="arrow_teal" markerWidth="7" markerHeight="7" refX="6" refY="3.5" orient="auto"><path d="M0,0 L7,3.5 L0,7 Z" fill="#0B7285"/></marker>
  <marker id="arrow_gold" markerWidth="7" markerHeight="7" refX="6" refY="3.5" orient="auto"><path d="M0,0 L7,3.5 L0,7 Z" fill="#C9962A"/></marker>
  <marker id="arrow_green" markerWidth="7" markerHeight="7" refX="6" refY="3.5" orient="auto"><path d="M0,0 L7,3.5 L0,7 Z" fill="#166534"/></marker>
  <marker id="arrow_red" markerWidth="7" markerHeight="7" refX="6" refY="3.5" orient="auto"><path d="M0,0 L7,3.5 L0,7 Z" fill="#B91C1C"/></marker>
  <marker id="arrow_gray" markerWidth="7" markerHeight="7" refX="6" refY="3.5" orient="auto"><path d="M0,0 L7,3.5 L0,7 Z" fill="#6B7280"/></marker>
</defs>
<text x="26" y="28" text-anchor="start" font-family="JetBrains Mono, monospace" font-size="14" fill="#0B1D3A" font-weight="700">Internship Timeline</text>
<line x1="70" y1="165" x2="710" y2="165" stroke="#0B1D3A" stroke-width="2.0"/>
<circle cx="90" cy="165" r="7" fill="#0B7285" stroke="#0B1D3A" stroke-width="1.0"/>
<line x1="90" y1="172" x2="90" y2="217" stroke="#6B7280" stroke-width="1.2"/>
<rect x="25" y="218" width="130" height="82" rx="2" fill="#F7F4EF" stroke="#0B7285" stroke-width="1.2"/>
<rect x="25" y="218" width="130" height="22" rx="2" fill="#0B7285" stroke="#0B7285" stroke-width="1.0"/>
<text x="90.0" y="233" text-anchor="middle" font-family="JetBrains Mono, monospace" font-size="8.2" fill="#FFFFFF" font-weight="700">FEB</text>
<text x="33" y="256" text-anchor="start" font-family="JetBrains Mono, monospace" font-size="7.2" fill="#6B7280" font-weight="400">Remote training</text>
<text x="33" y="268" text-anchor="start" font-family="JetBrains Mono, monospace" font-size="7.2" fill="#6B7280" font-weight="400">business logic</text>
<text x="33" y="280" text-anchor="start" font-family="JetBrains Mono, monospace" font-size="7.2" fill="#6B7280" font-weight="400">Java / Spring Boot</text>
<circle cx="240" cy="165" r="7" fill="#166534" stroke="#0B1D3A" stroke-width="1.0"/>
<line x1="240" y1="158" x2="240" y2="142" stroke="#6B7280" stroke-width="1.2"/>
<rect x="175" y="60" width="130" height="82" rx="2" fill="#F7F4EF" stroke="#166534" stroke-width="1.2"/>
<rect x="175" y="60" width="130" height="22" rx="2" fill="#166534" stroke="#166534" stroke-width="1.0"/>
<text x="240.0" y="75" text-anchor="middle" font-family="JetBrains Mono, monospace" font-size="8.2" fill="#FFFFFF" font-weight="700">W3</text>
<text x="183" y="98" text-anchor="start" font-family="JetBrains Mono, monospace" font-size="7.2" fill="#6B7280" font-weight="400">On-site work</text>
<text x="183" y="110" text-anchor="start" font-family="JetBrains Mono, monospace" font-size="7.2" fill="#6B7280" font-weight="400">team integration</text>
<text x="183" y="122" text-anchor="start" font-family="JetBrains Mono, monospace" font-size="7.2" fill="#6B7280" font-weight="400">SCF codebase</text>
<circle cx="390" cy="165" r="7" fill="#0B7285" stroke="#0B1D3A" stroke-width="1.0"/>
<line x1="390" y1="172" x2="390" y2="217" stroke="#6B7280" stroke-width="1.2"/>
<rect x="325" y="218" width="130" height="82" rx="2" fill="#F7F4EF" stroke="#0B7285" stroke-width="1.2"/>
<rect x="325" y="218" width="130" height="22" rx="2" fill="#0B7285" stroke="#0B7285" stroke-width="1.0"/>
<text x="390.0" y="233" text-anchor="middle" font-family="JetBrains Mono, monospace" font-size="8.2" fill="#FFFFFF" font-weight="700">S2-S8</text>
<text x="333" y="256" text-anchor="start" font-family="JetBrains Mono, monospace" font-size="7.2" fill="#6B7280" font-weight="400">Sprint delivery</text>
<text x="333" y="268" text-anchor="start" font-family="JetBrains Mono, monospace" font-size="7.2" fill="#6B7280" font-weight="400">Jira tickets</text>
<text x="333" y="280" text-anchor="start" font-family="JetBrains Mono, monospace" font-size="7.2" fill="#6B7280" font-weight="400">PR + testing</text>
<circle cx="540" cy="165" r="7" fill="#C9962A" stroke="#0B1D3A" stroke-width="1.0"/>
<line x1="540" y1="158" x2="540" y2="142" stroke="#6B7280" stroke-width="1.2"/>
<rect x="475" y="60" width="130" height="82" rx="2" fill="#F7F4EF" stroke="#C9962A" stroke-width="1.2"/>
<rect x="475" y="60" width="130" height="22" rx="2" fill="#C9962A" stroke="#C9962A" stroke-width="1.0"/>
<text x="540.0" y="75" text-anchor="middle" font-family="JetBrains Mono, monospace" font-size="8.2" fill="#FFFFFF" font-weight="700">MON</text>
<text x="483" y="98" text-anchor="start" font-family="JetBrains Mono, monospace" font-size="7.2" fill="#6B7280" font-weight="400">PO refinement</text>
<text x="483" y="110" text-anchor="start" font-family="JetBrains Mono, monospace" font-size="7.2" fill="#6B7280" font-weight="400">module rules</text>
<text x="483" y="122" text-anchor="start" font-family="JetBrains Mono, monospace" font-size="7.2" fill="#6B7280" font-weight="400">diagram reviews</text>
<circle cx="690" cy="165" r="7" fill="#166534" stroke="#0B1D3A" stroke-width="1.0"/>
<line x1="690" y1="172" x2="690" y2="217" stroke="#6B7280" stroke-width="1.2"/>
<rect x="625" y="218" width="130" height="82" rx="2" fill="#F7F4EF" stroke="#166534" stroke-width="1.2"/>
<rect x="625" y="218" width="130" height="22" rx="2" fill="#166534" stroke="#166534" stroke-width="1.0"/>
<text x="690.0" y="233" text-anchor="middle" font-family="JetBrains Mono, monospace" font-size="8.2" fill="#FFFFFF" font-weight="700">JUL</text>
<text x="633" y="256" text-anchor="start" font-family="JetBrains Mono, monospace" font-size="7.2" fill="#6B7280" font-weight="400">Report closure</text>
<text x="633" y="268" text-anchor="start" font-family="JetBrains Mono, monospace" font-size="7.2" fill="#6B7280" font-weight="400">synthesis</text>
<text x="633" y="280" text-anchor="start" font-family="JetBrains Mono, monospace" font-size="7.2" fill="#6B7280" font-weight="400">final polish</text>
</svg>
