<svg viewBox="0 0 820 360" xmlns="http://www.w3.org/2000/svg" style="width:100%; height:auto;">

<defs>
  <marker id="arrow_navy" markerWidth="7" markerHeight="7" refX="6" refY="3.5" orient="auto"><path d="M0,0 L7,3.5 L0,7 Z" fill="#0B1D3A"/></marker>
  <marker id="arrow_teal" markerWidth="7" markerHeight="7" refX="6" refY="3.5" orient="auto"><path d="M0,0 L7,3.5 L0,7 Z" fill="#0B7285"/></marker>
  <marker id="arrow_gold" markerWidth="7" markerHeight="7" refX="6" refY="3.5" orient="auto"><path d="M0,0 L7,3.5 L0,7 Z" fill="#C9962A"/></marker>
  <marker id="arrow_green" markerWidth="7" markerHeight="7" refX="6" refY="3.5" orient="auto"><path d="M0,0 L7,3.5 L0,7 Z" fill="#166534"/></marker>
  <marker id="arrow_red" markerWidth="7" markerHeight="7" refX="6" refY="3.5" orient="auto"><path d="M0,0 L7,3.5 L0,7 Z" fill="#B91C1C"/></marker>
  <marker id="arrow_gray" markerWidth="7" markerHeight="7" refX="6" refY="3.5" orient="auto"><path d="M0,0 L7,3.5 L0,7 Z" fill="#6B7280"/></marker>
</defs>
<text x="26" y="28" text-anchor="start" font-family="JetBrains Mono, monospace" font-size="14" fill="#0B1D3A" font-weight="700">Authentication and Role Resolution</text>
<rect x="22.0" y="55" width="96" height="22" rx="2" fill="#F0EDE8" stroke="#0B1D3A" stroke-width="1.0"/>
<text x="70" y="70" text-anchor="middle" font-family="JetBrains Mono, monospace" font-size="6.8" fill="#0B1D3A" font-weight="700">Browser</text>
<line x1="70" y1="77" x2="70" y2="370" stroke="#D4D0C8" stroke-width="0.8" stroke-dasharray="4 3"/>
<rect x="162.0" y="55" width="96" height="22" rx="2" fill="#F0EDE8" stroke="#0B1D3A" stroke-width="1.0"/>
<text x="210" y="70" text-anchor="middle" font-family="JetBrains Mono, monospace" font-size="6.8" fill="#0B1D3A" font-weight="700">Keycloak</text>
<line x1="210" y1="77" x2="210" y2="370" stroke="#D4D0C8" stroke-width="0.8" stroke-dasharray="4 3"/>
<rect x="312.0" y="55" width="96" height="22" rx="2" fill="#F0EDE8" stroke="#0B1D3A" stroke-width="1.0"/>
<text x="360" y="70" text-anchor="middle" font-family="JetBrains Mono, monospace" font-size="6.8" fill="#0B1D3A" font-weight="700">React Auth</text>
<line x1="360" y1="77" x2="360" y2="370" stroke="#D4D0C8" stroke-width="0.8" stroke-dasharray="4 3"/>
<rect x="472.0" y="55" width="96" height="22" rx="2" fill="#F0EDE8" stroke="#0B1D3A" stroke-width="1.0"/>
<text x="520" y="70" text-anchor="middle" font-family="JetBrains Mono, monospace" font-size="6.8" fill="#0B1D3A" font-weight="700">Business View</text>
<line x1="520" y1="77" x2="520" y2="370" stroke="#D4D0C8" stroke-width="0.8" stroke-dasharray="4 3"/>
<rect x="627.0" y="55" width="96" height="22" rx="2" fill="#F0EDE8" stroke="#0B1D3A" stroke-width="1.0"/>
<text x="675" y="70" text-anchor="middle" font-family="JetBrains Mono, monospace" font-size="6.8" fill="#0B1D3A" font-weight="700">Backend</text>
<line x1="675" y1="77" x2="675" y2="370" stroke="#D4D0C8" stroke-width="0.8" stroke-dasharray="4 3"/>
<line x1="70" y1="100" x2="209" y2="100" stroke="#0B1D3A" stroke-width="1.2" marker-end="url(#arrow_navy)"/>
<text x="140.0" y="94" text-anchor="middle" font-family="JetBrains Mono, monospace" font-size="6.2" fill="#0B1D3A" font-weight="400">authorize + PKCE</text>
<line x1="210" y1="130" x2="71" y2="130" stroke="#C9962A" stroke-width="1.2" stroke-dasharray="4 3" marker-end="url(#arrow_gold)"/>
<text x="140.0" y="124" text-anchor="middle" font-family="JetBrains Mono, monospace" font-size="6.2" fill="#C9962A" font-weight="400">authorization code</text>
<line x1="70" y1="160" x2="209" y2="160" stroke="#0B1D3A" stroke-width="1.2" marker-end="url(#arrow_navy)"/>
<text x="140.0" y="154" text-anchor="middle" font-family="JetBrains Mono, monospace" font-size="6.2" fill="#0B1D3A" font-weight="400">token exchange</text>
<line x1="210" y1="190" x2="359" y2="190" stroke="#166534" stroke-width="1.2" marker-end="url(#arrow_green)"/>
<text x="285.0" y="184" text-anchor="middle" font-family="JetBrains Mono, monospace" font-size="6.2" fill="#166534" font-weight="400">access + refresh token</text>
<line x1="360" y1="220" x2="519" y2="220" stroke="#0B7285" stroke-width="1.2" marker-end="url(#arrow_teal)"/>
<text x="440.0" y="214" text-anchor="middle" font-family="JetBrains Mono, monospace" font-size="6.2" fill="#0B7285" font-weight="400">decode roles</text>
<line x1="520" y1="250" x2="674" y2="250" stroke="#0B1D3A" stroke-width="1.2" marker-end="url(#arrow_navy)"/>
<text x="597.5" y="244" text-anchor="middle" font-family="JetBrains Mono, monospace" font-size="6.2" fill="#0B1D3A" font-weight="400">Bearer API call</text>
<line x1="675" y1="280" x2="521" y2="280" stroke="#C9962A" stroke-width="1.2" stroke-dasharray="4 3" marker-end="url(#arrow_gold)"/>
<text x="597.5" y="274" text-anchor="middle" font-family="JetBrains Mono, monospace" font-size="6.2" fill="#C9962A" font-weight="400">authorized response</text>
</svg>
