<svg viewBox="0 0 770 340" xmlns="http://www.w3.org/2000/svg" style="width:100%; height:auto;">

  <defs>
    <marker id="arrow_navy" markerWidth="7" markerHeight="7" refX="6" refY="3.5" orient="auto"><path d="M0,0 L7,3.5 L0,7 Z" fill="#0B1D3A"/></marker>
    <marker id="arrow_gray" markerWidth="7" markerHeight="7" refX="6" refY="3.5" orient="auto"><path d="M0,0 L7,3.5 L0,7 Z" fill="#6B7280"/></marker>
    <marker id="arrow_green" markerWidth="7" markerHeight="7" refX="6" refY="3.5" orient="auto"><path d="M0,0 L7,3.5 L0,7 Z" fill="#166534"/></marker>
    <marker id="arrow_gold" markerWidth="7" markerHeight="7" refX="6" refY="3.5" orient="auto"><path d="M0,0 L7,3.5 L0,7 Z" fill="#C9962A"/></marker>
  </defs>

  <text x="25" y="30" font-family="JetBrains Mono, monospace" font-size="14" fill="#0B1D3A" font-weight="700">Document Storage and Conversion Flow</text>
  <rect x="25" y="155" width="110" height="78" rx="2" fill="#F7F4EF" stroke="#0B7285" stroke-width="1.5"/>
  <rect x="25" y="155" width="110" height="22" rx="2" fill="#0B7285"/>
  <text x="80.0" y="170" text-anchor="middle" font-family="JetBrains Mono, monospace" font-size="8.5" fill="white" font-weight="600">USER_UPLOAD</text>
  <text x="33" y="193" font-family="JetBrains Mono, monospace" font-size="7.2" fill="#6B7280" font-weight="400">document file</text>
  <text x="33" y="206" font-family="JetBrains Mono, monospace" font-size="7.2" fill="#0B7285" font-weight="600">metadata</text>
  <rect x="170" y="155" width="115" height="78" rx="2" fill="#F7F4EF" stroke="#166534" stroke-width="1.5"/>
  <rect x="170" y="155" width="115" height="22" rx="2" fill="#166534"/>
  <text x="227.5" y="170" text-anchor="middle" font-family="JetBrains Mono, monospace" font-size="8.5" fill="white" font-weight="600">GATEWAY</text>
  <text x="178" y="193" font-family="JetBrains Mono, monospace" font-size="7.2" fill="#6B7280" font-weight="400">multipart</text>
  <text x="178" y="206" font-family="JetBrains Mono, monospace" font-size="7.2" fill="#166534" font-weight="600">ClamAV scan</text>
  <rect x="325" y="155" width="125" height="78" rx="2" fill="#F7F4EF" stroke="#0B7285" stroke-width="1.5"/>
  <rect x="325" y="155" width="125" height="22" rx="2" fill="#0B7285"/>
  <text x="387.5" y="170" text-anchor="middle" font-family="JetBrains Mono, monospace" font-size="8.5" fill="white" font-weight="600">SCF_SERVICE</text>
  <text x="333" y="193" font-family="JetBrains Mono, monospace" font-size="7.2" fill="#6B7280" font-weight="400">validate file</text>
  <text x="333" y="206" font-family="JetBrains Mono, monospace" font-size="7.2" fill="#0B7285" font-weight="600">save metadata</text>
  <rect x="500" y="75" width="115" height="78" rx="2" fill="#F7F4EF" stroke="#0B1D3A" stroke-width="1.5"/>
  <rect x="500" y="75" width="115" height="22" rx="2" fill="#162B52"/>
  <text x="557.5" y="90" text-anchor="middle" font-family="JetBrains Mono, monospace" font-size="8.5" fill="white" font-weight="600">MINIO</text>
  <text x="508" y="113" font-family="JetBrains Mono, monospace" font-size="7.2" fill="#6B7280" font-weight="400">object bytes</text>
  <text x="508" y="126" font-family="JetBrains Mono, monospace" font-size="7.2" fill="#0B7285" font-weight="600">presigned URL</text>
  <rect x="500" y="235" width="115" height="78" rx="2" fill="#F7F4EF" stroke="#C9962A" stroke-width="1.5"/>
  <rect x="500" y="235" width="115" height="22" rx="2" fill="#C9962A"/>
  <text x="557.5" y="250" text-anchor="middle" font-family="JetBrains Mono, monospace" font-size="8.5" fill="white" font-weight="600">GOTENBERG</text>
  <text x="508" y="273" font-family="JetBrains Mono, monospace" font-size="7.2" fill="#6B7280" font-weight="400">DOCX/XLSX</text>
  <text x="508" y="286" font-family="JetBrains Mono, monospace" font-size="7.2" fill="#C9962A" font-weight="600">PDF output</text>
  <rect x="650" y="155" width="95" height="78" rx="2" fill="#F7F4EF" stroke="#0B1D3A" stroke-width="1.5"/>
  <rect x="650" y="155" width="95" height="22" rx="2" fill="#162B52"/>
  <text x="697.5" y="170" text-anchor="middle" font-family="JetBrains Mono, monospace" font-size="8.5" fill="white" font-weight="600">POSTGRES</text>
  <text x="658" y="193" font-family="JetBrains Mono, monospace" font-size="7.2" fill="#6B7280" font-weight="400">document row</text>
  <text x="658" y="206" font-family="JetBrains Mono, monospace" font-size="7.2" fill="#0B7285" font-weight="600">file path</text>
  <line x1="135" y1="194" x2="169" y2="194" stroke="#0B1D3A" stroke-width="1.5" marker-end="url(#arrow_navy)"/>
  <line x1="285" y1="194" x2="324" y2="194" stroke="#166534" stroke-width="1.5" marker-end="url(#arrow_green)"/>
  <line x1="450" y1="175" x2="499" y2="114" stroke="#0B1D3A" stroke-width="1.5" marker-end="url(#arrow_navy)"/>
  <line x1="450" y1="213" x2="499" y2="274" stroke="#C9962A" stroke-width="1.5" marker-end="url(#arrow_gold)"/>
  <line x1="450" y1="194" x2="649" y2="194" stroke="#0B1D3A" stroke-width="1.5" marker-end="url(#arrow_navy)"/>
  <text x="548" y="188" text-anchor="middle" font-family="JetBrains Mono, monospace" font-size="7" fill="#0B1D3A">metadata</text>

</svg>
