<svg viewBox="0 0 820 440" xmlns="http://www.w3.org/2000/svg" style="width:100%; height:auto;">

<defs>
  <marker id="arrow_navy" markerWidth="7" markerHeight="7" refX="6" refY="3.5" orient="auto"><path d="M0,0 L7,3.5 L0,7 Z" fill="#0B1D3A"/></marker>
  <marker id="arrow_teal" markerWidth="7" markerHeight="7" refX="6" refY="3.5" orient="auto"><path d="M0,0 L7,3.5 L0,7 Z" fill="#0B7285"/></marker>
  <marker id="arrow_gold" markerWidth="7" markerHeight="7" refX="6" refY="3.5" orient="auto"><path d="M0,0 L7,3.5 L0,7 Z" fill="#C9962A"/></marker>
  <marker id="arrow_green" markerWidth="7" markerHeight="7" refX="6" refY="3.5" orient="auto"><path d="M0,0 L7,3.5 L0,7 Z" fill="#166534"/></marker>
  <marker id="arrow_red" markerWidth="7" markerHeight="7" refX="6" refY="3.5" orient="auto"><path d="M0,0 L7,3.5 L0,7 Z" fill="#B91C1C"/></marker>
  <marker id="arrow_gray" markerWidth="7" markerHeight="7" refX="6" refY="3.5" orient="auto"><path d="M0,0 L7,3.5 L0,7 Z" fill="#6B7280"/></marker>
</defs>
<text x="26" y="28" text-anchor="start" font-family="JetBrains Mono, monospace" font-size="14" fill="#0B1D3A" font-weight="700">Global Architecture of the SCF Platform</text>
<rect x="40" y="72" width="740" height="78" rx="2" fill="#F0EDE8" stroke="#D4D0C8" stroke-width="1.2"/>
<rect x="40" y="178" width="740" height="102" rx="2" fill="#F7F4EF" stroke="#D4D0C8" stroke-width="1.2"/>
<rect x="40" y="310" width="740" height="78" rx="2" fill="#F0EDE8" stroke="#D4D0C8" stroke-width="1.2"/>
<text x="65" y="98" text-anchor="start" font-family="JetBrains Mono, monospace" font-size="8" fill="#0B1D3A" font-weight="700">Channel Layer</text>
<text x="65" y="205" text-anchor="start" font-family="JetBrains Mono, monospace" font-size="8" fill="#0B1D3A" font-weight="700">Business and Edge Layer</text>
<text x="65" y="337" text-anchor="start" font-family="JetBrains Mono, monospace" font-size="8" fill="#0B1D3A" font-weight="700">Infrastructure Layer</text>
<rect x="210" y="90" width="120" height="46" rx="2" fill="#F7F4EF" stroke="#0B7285" stroke-width="1.2"/>
<rect x="210" y="90" width="120" height="22" rx="2" fill="#0B7285" stroke="#0B7285" stroke-width="1.0"/>
<text x="270.0" y="105" text-anchor="middle" font-family="JetBrains Mono, monospace" font-size="8.2" fill="#FFFFFF" font-weight="700">React SPA</text>
<text x="218" y="128" text-anchor="start" font-family="JetBrains Mono, monospace" font-size="7.2" fill="#6B7280" font-weight="400">role views</text>
<rect x="390" y="90" width="130" height="46" rx="2" fill="#F7F4EF" stroke="#0B1D3A" stroke-width="1.2"/>
<rect x="390" y="90" width="130" height="22" rx="2" fill="#162B52" stroke="#162B52" stroke-width="1.0"/>
<text x="455.0" y="105" text-anchor="middle" font-family="JetBrains Mono, monospace" font-size="8.2" fill="#FFFFFF" font-weight="700">Axios Client</text>
<text x="398" y="128" text-anchor="start" font-family="JetBrains Mono, monospace" font-size="7.2" fill="#6B7280" font-weight="400">gateway paths</text>
<rect x="140" y="205" width="135" height="58" rx="2" fill="#F7F4EF" stroke="#0B1D3A" stroke-width="1.2"/>
<rect x="140" y="205" width="135" height="22" rx="2" fill="#162B52" stroke="#162B52" stroke-width="1.0"/>
<text x="207.5" y="220" text-anchor="middle" font-family="JetBrains Mono, monospace" font-size="8.2" fill="#FFFFFF" font-weight="700">adria-gateway</text>
<text x="148" y="243" text-anchor="start" font-family="JetBrains Mono, monospace" font-size="7.2" fill="#6B7280" font-weight="400">JWT, filters</text>
<text x="148" y="255" text-anchor="start" font-family="JetBrains Mono, monospace" font-size="7.2" fill="#0B7285" font-weight="600">routing</text>
<rect x="330" y="205" width="145" height="58" rx="2" fill="#F7F4EF" stroke="#0B7285" stroke-width="1.2"/>
<rect x="330" y="205" width="145" height="22" rx="2" fill="#0B7285" stroke="#0B7285" stroke-width="1.0"/>
<text x="402.5" y="220" text-anchor="middle" font-family="JetBrains Mono, monospace" font-size="8.2" fill="#FFFFFF" font-weight="700">scf-service</text>
<text x="338" y="243" text-anchor="start" font-family="JetBrains Mono, monospace" font-size="7.2" fill="#6B7280" font-weight="400">modular monolith</text>
<text x="338" y="255" text-anchor="start" font-family="JetBrains Mono, monospace" font-size="7.2" fill="#0B7285" font-weight="600">SCF modules</text>
<rect x="530" y="205" width="130" height="58" rx="2" fill="#F7F4EF" stroke="#0B7285" stroke-width="1.2"/>
<rect x="530" y="205" width="130" height="22" rx="2" fill="#0B7285" stroke="#0B7285" stroke-width="1.0"/>
<text x="595.0" y="220" text-anchor="middle" font-family="JetBrains Mono, monospace" font-size="8.2" fill="#FFFFFF" font-weight="700">FDL / Props</text>
<text x="538" y="243" text-anchor="start" font-family="JetBrains Mono, monospace" font-size="7.2" fill="#6B7280" font-weight="400">reference data</text>
<text x="538" y="255" text-anchor="start" font-family="JetBrains Mono, monospace" font-size="7.2" fill="#6B7280" font-weight="400">runtime values</text>
<rect x="105" y="330" width="120" height="42" rx="2" fill="#F7F4EF" stroke="#166534" stroke-width="1.2"/>
<rect x="105" y="330" width="120" height="22" rx="2" fill="#166534" stroke="#166534" stroke-width="1.0"/>
<text x="165.0" y="345" text-anchor="middle" font-family="JetBrains Mono, monospace" font-size="8.2" fill="#FFFFFF" font-weight="700">Keycloak</text>
<text x="113" y="368" text-anchor="start" font-family="JetBrains Mono, monospace" font-size="7.2" fill="#6B7280" font-weight="400">OIDC</text>
<rect x="260" y="330" width="120" height="42" rx="2" fill="#F7F4EF" stroke="#0B1D3A" stroke-width="1.2"/>
<rect x="260" y="330" width="120" height="22" rx="2" fill="#162B52" stroke="#162B52" stroke-width="1.0"/>
<text x="320.0" y="345" text-anchor="middle" font-family="JetBrains Mono, monospace" font-size="8.2" fill="#FFFFFF" font-weight="700">PostgreSQL</text>
<text x="268" y="368" text-anchor="start" font-family="JetBrains Mono, monospace" font-size="7.2" fill="#6B7280" font-weight="400">business data</text>
<rect x="415" y="330" width="120" height="42" rx="2" fill="#F7F4EF" stroke="#C9962A" stroke-width="1.2"/>
<rect x="415" y="330" width="120" height="22" rx="2" fill="#C9962A" stroke="#C9962A" stroke-width="1.0"/>
<text x="475.0" y="345" text-anchor="middle" font-family="JetBrains Mono, monospace" font-size="8.2" fill="#FFFFFF" font-weight="700">MinIO</text>
<text x="423" y="368" text-anchor="start" font-family="JetBrains Mono, monospace" font-size="7.2" fill="#6B7280" font-weight="400">documents</text>
<rect x="570" y="330" width="120" height="42" rx="2" fill="#F7F4EF" stroke="#1A1A1A" stroke-width="1.2"/>
<rect x="570" y="330" width="120" height="22" rx="2" fill="#1A1A1A" stroke="#1A1A1A" stroke-width="1.0"/>
<text x="630.0" y="345" text-anchor="middle" font-family="JetBrains Mono, monospace" font-size="8.2" fill="#FFFFFF" font-weight="700">Kafka</text>
<text x="578" y="368" text-anchor="start" font-family="JetBrains Mono, monospace" font-size="7.2" fill="#6B7280" font-weight="400">events</text>
<line x1="330" y1="113" x2="389" y2="113" stroke="#0B1D3A" stroke-width="1.2" marker-end="url(#arrow_navy)"/>
<path d="M 455,136 L 455,175 L 208,175 L 208,204" fill="none" stroke="#0B1D3A" stroke-width="1.2" marker-end="url(#arrow_navy)"/>
<line x1="275" y1="234" x2="329" y2="234" stroke="#0B1D3A" stroke-width="1.2" marker-end="url(#arrow_navy)"/>
<line x1="475" y1="234" x2="529" y2="234" stroke="#0B1D3A" stroke-width="1.2" marker-end="url(#arrow_navy)"/>
<path d="M 208,205 L 208,170 L 165,170 L 165,329" fill="none" stroke="#166534" stroke-width="1.2" stroke-dasharray="5 3" marker-end="url(#arrow_green)"/>
<path d="M 402,263 L 402,309 L 320,309 L 320,329" fill="none" stroke="#0B1D3A" stroke-width="1.2" marker-end="url(#arrow_navy)"/>
<path d="M 420,263 L 420,329" fill="none" stroke="#C9962A" stroke-width="1.2" marker-end="url(#arrow_gold)"/>
<path d="M 448,263 L 448,298 L 630,298 L 630,329" fill="none" stroke="#1A1A1A" stroke-width="1.2" marker-end="url(#arrow_navy)"/>
</svg>
