<svg viewBox="0 0 820 360" xmlns="http://www.w3.org/2000/svg" style="width:100%; height:auto;">

<defs>
  <marker id="arrow_navy" markerWidth="7" markerHeight="7" refX="6" refY="3.5" orient="auto"><path d="M0,0 L7,3.5 L0,7 Z" fill="#0B1D3A"/></marker>
  <marker id="arrow_teal" markerWidth="7" markerHeight="7" refX="6" refY="3.5" orient="auto"><path d="M0,0 L7,3.5 L0,7 Z" fill="#0B7285"/></marker>
  <marker id="arrow_gold" markerWidth="7" markerHeight="7" refX="6" refY="3.5" orient="auto"><path d="M0,0 L7,3.5 L0,7 Z" fill="#C9962A"/></marker>
  <marker id="arrow_green" markerWidth="7" markerHeight="7" refX="6" refY="3.5" orient="auto"><path d="M0,0 L7,3.5 L0,7 Z" fill="#166534"/></marker>
  <marker id="arrow_red" markerWidth="7" markerHeight="7" refX="6" refY="3.5" orient="auto"><path d="M0,0 L7,3.5 L0,7 Z" fill="#B91C1C"/></marker>
  <marker id="arrow_gray" markerWidth="7" markerHeight="7" refX="6" refY="3.5" orient="auto"><path d="M0,0 L7,3.5 L0,7 Z" fill="#6B7280"/></marker>
</defs>
<text x="26" y="28" text-anchor="start" font-family="JetBrains Mono, monospace" font-size="14" fill="#0B1D3A" font-weight="700">Document Storage and Conversion Flow</text>
<rect x="55" y="150" width="115" height="62" rx="2" fill="#F7F4EF" stroke="#0B7285" stroke-width="1.2"/>
<rect x="55" y="150" width="115" height="22" rx="2" fill="#0B7285" stroke="#0B7285" stroke-width="1.0"/>
<text x="112.5" y="165" text-anchor="middle" font-family="JetBrains Mono, monospace" font-size="8.2" fill="#FFFFFF" font-weight="700">Upload UI</text>
<text x="63" y="188" text-anchor="start" font-family="JetBrains Mono, monospace" font-size="7.2" fill="#6B7280" font-weight="400">multipart file</text>
<rect x="220" y="150" width="125" height="62" rx="2" fill="#F7F4EF" stroke="#166534" stroke-width="1.2"/>
<rect x="220" y="150" width="125" height="22" rx="2" fill="#166534" stroke="#166534" stroke-width="1.0"/>
<text x="282.5" y="165" text-anchor="middle" font-family="JetBrains Mono, monospace" font-size="8.2" fill="#FFFFFF" font-weight="700">Gateway</text>
<text x="228" y="188" text-anchor="start" font-family="JetBrains Mono, monospace" font-size="7.2" fill="#6B7280" font-weight="400">ClamAV scan</text>
<rect x="395" y="150" width="130" height="62" rx="2" fill="#F7F4EF" stroke="#0B7285" stroke-width="1.2"/>
<rect x="395" y="150" width="130" height="22" rx="2" fill="#0B7285" stroke="#0B7285" stroke-width="1.0"/>
<text x="460.0" y="165" text-anchor="middle" font-family="JetBrains Mono, monospace" font-size="8.2" fill="#FFFFFF" font-weight="700">SCF Service</text>
<text x="403" y="188" text-anchor="start" font-family="JetBrains Mono, monospace" font-size="7.2" fill="#6B7280" font-weight="400">metadata + ports</text>
<rect x="610" y="65" width="120" height="62" rx="2" fill="#F7F4EF" stroke="#0B1D3A" stroke-width="1.2"/>
<rect x="610" y="65" width="120" height="22" rx="2" fill="#162B52" stroke="#162B52" stroke-width="1.0"/>
<text x="670.0" y="80" text-anchor="middle" font-family="JetBrains Mono, monospace" font-size="8.2" fill="#FFFFFF" font-weight="700">MinIO</text>
<text x="618" y="103" text-anchor="start" font-family="JetBrains Mono, monospace" font-size="7.2" fill="#6B7280" font-weight="400">object bytes</text>
<rect x="610" y="150" width="120" height="62" rx="2" fill="#F7F4EF" stroke="#0B1D3A" stroke-width="1.2"/>
<rect x="610" y="150" width="120" height="22" rx="2" fill="#162B52" stroke="#162B52" stroke-width="1.0"/>
<text x="670.0" y="165" text-anchor="middle" font-family="JetBrains Mono, monospace" font-size="8.2" fill="#FFFFFF" font-weight="700">PostgreSQL</text>
<text x="618" y="188" text-anchor="start" font-family="JetBrains Mono, monospace" font-size="7.2" fill="#6B7280" font-weight="400">document row</text>
<rect x="610" y="235" width="120" height="62" rx="2" fill="#F7F4EF" stroke="#C9962A" stroke-width="1.2"/>
<rect x="610" y="235" width="120" height="22" rx="2" fill="#C9962A" stroke="#C9962A" stroke-width="1.0"/>
<text x="670.0" y="250" text-anchor="middle" font-family="JetBrains Mono, monospace" font-size="8.2" fill="#FFFFFF" font-weight="700">Gotenberg</text>
<text x="618" y="273" text-anchor="start" font-family="JetBrains Mono, monospace" font-size="7.2" fill="#6B7280" font-weight="400">PDF conversion</text>
<line x1="170" y1="181" x2="219" y2="181" stroke="#0B1D3A" stroke-width="1.2" marker-end="url(#arrow_navy)"/>
<line x1="345" y1="181" x2="394" y2="181" stroke="#166534" stroke-width="1.2" marker-end="url(#arrow_green)"/>
<line x1="525" y1="170" x2="609" y2="96" stroke="#0B1D3A" stroke-width="1.2" marker-end="url(#arrow_navy)"/>
<line x1="525" y1="181" x2="609" y2="181" stroke="#0B1D3A" stroke-width="1.2" marker-end="url(#arrow_navy)"/>
<line x1="525" y1="194" x2="609" y2="266" stroke="#C9962A" stroke-width="1.2" marker-end="url(#arrow_gold)"/>
</svg>
