<svg viewBox="0 0 765 330" xmlns="http://www.w3.org/2000/svg" style="width:100%; height:auto;">

  <defs>
    <marker id="arrow_navy" markerWidth="7" markerHeight="7" refX="6" refY="3.5" orient="auto"><path d="M0,0 L7,3.5 L0,7 Z" fill="#0B1D3A"/></marker>
    <marker id="arrow_gray" markerWidth="7" markerHeight="7" refX="6" refY="3.5" orient="auto"><path d="M0,0 L7,3.5 L0,7 Z" fill="#6B7280"/></marker>
    <marker id="arrow_green" markerWidth="7" markerHeight="7" refX="6" refY="3.5" orient="auto"><path d="M0,0 L7,3.5 L0,7 Z" fill="#166534"/></marker>
    <marker id="arrow_gold" markerWidth="7" markerHeight="7" refX="6" refY="3.5" orient="auto"><path d="M0,0 L7,3.5 L0,7 Z" fill="#C9962A"/></marker>
  </defs>

  <text x="25" y="30" font-family="JetBrains Mono, monospace" font-size="14" fill="#0B1D3A" font-weight="700">Authentication and Role Resolution Flow</text>
  <rect x="25" y="150" width="110" height="78" rx="2" fill="#F7F4EF" stroke="#0B7285" stroke-width="1.5"/>
  <rect x="25" y="150" width="110" height="22" rx="2" fill="#0B7285"/>
  <text x="80.0" y="165" text-anchor="middle" font-family="JetBrains Mono, monospace" font-size="8.5" fill="white" font-weight="600">BROWSER</text>
  <text x="33" y="188" font-family="JetBrains Mono, monospace" font-size="7.2" fill="#6B7280" font-weight="400">opens /auth</text>
  <text x="33" y="201" font-family="JetBrains Mono, monospace" font-size="7.2" fill="#0B7285" font-weight="600">PKCE challenge</text>
  <rect x="175" y="150" width="110" height="78" rx="2" fill="#F7F4EF" stroke="#166534" stroke-width="1.5"/>
  <rect x="175" y="150" width="110" height="22" rx="2" fill="#166534"/>
  <text x="230.0" y="165" text-anchor="middle" font-family="JetBrains Mono, monospace" font-size="8.5" fill="white" font-weight="600">KEYCLOAK</text>
  <text x="183" y="188" font-family="JetBrains Mono, monospace" font-size="7.2" fill="#6B7280" font-weight="400">login</text>
  <text x="183" y="201" font-family="JetBrains Mono, monospace" font-size="7.2" fill="#166534" font-weight="600">code + tokens</text>
  <rect x="325" y="150" width="115" height="78" rx="2" fill="#F7F4EF" stroke="#0B7285" stroke-width="1.5"/>
  <rect x="325" y="150" width="115" height="22" rx="2" fill="#0B7285"/>
  <text x="382.5" y="165" text-anchor="middle" font-family="JetBrains Mono, monospace" font-size="8.5" fill="white" font-weight="600">FRONTEND</text>
  <text x="333" y="188" font-family="JetBrains Mono, monospace" font-size="7.2" fill="#6B7280" font-weight="400">sessionStorage</text>
  <text x="333" y="201" font-family="JetBrains Mono, monospace" font-size="7.2" fill="#0B7285" font-weight="600">decode JWT</text>
  <rect x="480" y="70" width="115" height="78" rx="2" fill="#F7F4EF" stroke="#C9962A" stroke-width="1.5"/>
  <rect x="480" y="70" width="115" height="22" rx="2" fill="#C9962A"/>
  <text x="537.5" y="85" text-anchor="middle" font-family="JetBrains Mono, monospace" font-size="8.5" fill="white" font-weight="600">BUSINESS_VIEW</text>
  <text x="488" y="108" font-family="JetBrains Mono, monospace" font-size="7.2" fill="#6B7280" font-weight="400">BANK</text>
  <text x="488" y="121" font-family="JetBrains Mono, monospace" font-size="7.2" fill="#6B7280" font-weight="400">ANCHOR</text>
  <text x="488" y="134" font-family="JetBrains Mono, monospace" font-size="7.2" fill="#0B7285" font-weight="600">COUNTERPARTY</text>
  <rect x="480" y="230" width="115" height="78" rx="2" fill="#F7F4EF" stroke="#0B7285" stroke-width="1.5"/>
  <rect x="480" y="230" width="115" height="22" rx="2" fill="#0B7285"/>
  <text x="537.5" y="245" text-anchor="middle" font-family="JetBrains Mono, monospace" font-size="8.5" fill="white" font-weight="600">AXIOS</text>
  <text x="488" y="268" font-family="JetBrains Mono, monospace" font-size="7.2" fill="#6B7280" font-weight="400">Bearer token</text>
  <text x="488" y="281" font-family="JetBrains Mono, monospace" font-size="7.2" fill="#0B7285" font-weight="600">refresh on 401</text>
  <rect x="635" y="150" width="105" height="78" rx="2" fill="#F7F4EF" stroke="#0B1D3A" stroke-width="1.5"/>
  <rect x="635" y="150" width="105" height="22" rx="2" fill="#162B52"/>
  <text x="687.5" y="165" text-anchor="middle" font-family="JetBrains Mono, monospace" font-size="8.5" fill="white" font-weight="600">BACKEND</text>
  <text x="643" y="188" font-family="JetBrains Mono, monospace" font-size="7.2" fill="#6B7280" font-weight="400">resource server</text>
  <text x="643" y="201" font-family="JetBrains Mono, monospace" font-size="7.2" fill="#166534" font-weight="600">ROLE_* auth</text>
  <line x1="135" y1="189" x2="174" y2="189" stroke="#0B1D3A" stroke-width="1.5" marker-end="url(#arrow_navy)"/>
  <text x="155" y="184" text-anchor="middle" font-family="JetBrains Mono, monospace" font-size="7" fill="#0B1D3A">redirect</text>
  <line x1="285" y1="189" x2="324" y2="189" stroke="#166534" stroke-width="1.5" marker-end="url(#arrow_green)"/>
  <text x="305" y="184" text-anchor="middle" font-family="JetBrains Mono, monospace" font-size="7" fill="#166534">tokens</text>
  <line x1="440" y1="170" x2="479" y2="109" stroke="#C9962A" stroke-width="1.5" marker-end="url(#arrow_gold)"/>
  <line x1="440" y1="208" x2="479" y2="269" stroke="#0B7285" stroke-width="1.5" marker-end="url(#arrow_green)"/>
  <line x1="595" y1="269" x2="634" y2="189" stroke="#0B1D3A" stroke-width="1.5" marker-end="url(#arrow_navy)"/>

</svg>
