<svg viewBox="0 0 820 340" xmlns="http://www.w3.org/2000/svg" style="width:100%; height:auto;">

<defs>
  <marker id="arrow_navy" markerWidth="7" markerHeight="7" refX="6" refY="3.5" orient="auto"><path d="M0,0 L7,3.5 L0,7 Z" fill="#0B1D3A"/></marker>
  <marker id="arrow_teal" markerWidth="7" markerHeight="7" refX="6" refY="3.5" orient="auto"><path d="M0,0 L7,3.5 L0,7 Z" fill="#0B7285"/></marker>
  <marker id="arrow_gold" markerWidth="7" markerHeight="7" refX="6" refY="3.5" orient="auto"><path d="M0,0 L7,3.5 L0,7 Z" fill="#C9962A"/></marker>
  <marker id="arrow_green" markerWidth="7" markerHeight="7" refX="6" refY="3.5" orient="auto"><path d="M0,0 L7,3.5 L0,7 Z" fill="#166534"/></marker>
  <marker id="arrow_red" markerWidth="7" markerHeight="7" refX="6" refY="3.5" orient="auto"><path d="M0,0 L7,3.5 L0,7 Z" fill="#B91C1C"/></marker>
  <marker id="arrow_gray" markerWidth="7" markerHeight="7" refX="6" refY="3.5" orient="auto"><path d="M0,0 L7,3.5 L0,7 Z" fill="#6B7280"/></marker>
</defs>
<text x="26" y="28" text-anchor="start" font-family="JetBrains Mono, monospace" font-size="14" fill="#0B1D3A" font-weight="700">Gateway Routing and Filter Chain</text>
<rect x="45" y="135" width="95" height="58" rx="2" fill="#F7F4EF" stroke="#0B1D3A" stroke-width="1.2"/>
<rect x="45" y="135" width="95" height="22" rx="2" fill="#162B52" stroke="#162B52" stroke-width="1.0"/>
<text x="92.5" y="150" text-anchor="middle" font-family="JetBrains Mono, monospace" font-size="8.2" fill="#FFFFFF" font-weight="700">REQUEST</text>
<text x="53" y="173" text-anchor="start" font-family="JetBrains Mono, monospace" font-size="7.2" fill="#6B7280" font-weight="400">browser/API</text>
<rect x="175" y="135" width="95" height="58" rx="2" fill="#F7F4EF" stroke="#166534" stroke-width="1.2"/>
<rect x="175" y="135" width="95" height="22" rx="2" fill="#166534" stroke="#166534" stroke-width="1.0"/>
<text x="222.5" y="150" text-anchor="middle" font-family="JetBrains Mono, monospace" font-size="8.2" fill="#FFFFFF" font-weight="700">AUTH</text>
<text x="183" y="173" text-anchor="start" font-family="JetBrains Mono, monospace" font-size="7.2" fill="#6B7280" font-weight="400">JWT / public</text>
<rect x="305" y="135" width="95" height="58" rx="2" fill="#F7F4EF" stroke="#C9962A" stroke-width="1.2"/>
<rect x="305" y="135" width="95" height="22" rx="2" fill="#C9962A" stroke="#C9962A" stroke-width="1.0"/>
<text x="352.5" y="150" text-anchor="middle" font-family="JetBrains Mono, monospace" font-size="8.2" fill="#FFFFFF" font-weight="700">SECURITY</text>
<text x="313" y="173" text-anchor="start" font-family="JetBrains Mono, monospace" font-size="7.2" fill="#6B7280" font-weight="400">ClamAV, limits</text>
<rect x="450" y="135" width="95" height="58" rx="2" fill="#F7F4EF" stroke="#0B7285" stroke-width="1.2"/>
<rect x="450" y="135" width="95" height="22" rx="2" fill="#0B7285" stroke="#0B7285" stroke-width="1.0"/>
<text x="497.5" y="150" text-anchor="middle" font-family="JetBrains Mono, monospace" font-size="8.2" fill="#FFFFFF" font-weight="700">ROUTING</text>
<text x="458" y="173" text-anchor="start" font-family="JetBrains Mono, monospace" font-size="7.2" fill="#6B7280" font-weight="400">/scf /fdl</text>
<rect x="590" y="135" width="95" height="58" rx="2" fill="#F7F4EF" stroke="#0B1D3A" stroke-width="1.2"/>
<rect x="590" y="135" width="95" height="22" rx="2" fill="#162B52" stroke="#162B52" stroke-width="1.0"/>
<text x="637.5" y="150" text-anchor="middle" font-family="JetBrains Mono, monospace" font-size="8.2" fill="#FFFFFF" font-weight="700">DISCOVERY</text>
<text x="598" y="173" text-anchor="start" font-family="JetBrains Mono, monospace" font-size="7.2" fill="#6B7280" font-weight="400">lb:// service</text>
<rect x="710" y="135" width="95" height="58" rx="2" fill="#F7F4EF" stroke="#B91C1C" stroke-width="1.2"/>
<rect x="710" y="135" width="95" height="22" rx="2" fill="#B91C1C" stroke="#B91C1C" stroke-width="1.0"/>
<text x="757.5" y="150" text-anchor="middle" font-family="JetBrains Mono, monospace" font-size="8.2" fill="#FFFFFF" font-weight="700">FALLBACK</text>
<text x="718" y="173" text-anchor="start" font-family="JetBrains Mono, monospace" font-size="7.2" fill="#6B7280" font-weight="400">resilience</text>
<line x1="140" y1="164" x2="174" y2="164" stroke="#0B1D3A" stroke-width="1.2" marker-end="url(#arrow_navy)"/>
<line x1="270" y1="164" x2="304" y2="164" stroke="#0B1D3A" stroke-width="1.2" marker-end="url(#arrow_navy)"/>
<line x1="400" y1="164" x2="449" y2="164" stroke="#0B1D3A" stroke-width="1.2" marker-end="url(#arrow_navy)"/>
<line x1="545" y1="164" x2="589" y2="164" stroke="#0B1D3A" stroke-width="1.2" marker-end="url(#arrow_navy)"/>
<line x1="685" y1="164" x2="709" y2="164" stroke="#B91C1C" stroke-width="1.2" marker-end="url(#arrow_red)"/>
<rect x="450" y="48" width="95" height="50" rx="2" fill="#F7F4EF" stroke="#166534" stroke-width="1.2"/>
<rect x="450" y="48" width="95" height="22" rx="2" fill="#166534" stroke="#166534" stroke-width="1.0"/>
<text x="497.5" y="63" text-anchor="middle" font-family="JetBrains Mono, monospace" font-size="8.2" fill="#FFFFFF" font-weight="700">HMAC</text>
<text x="458" y="86" text-anchor="start" font-family="JetBrains Mono, monospace" font-size="7.2" fill="#6B7280" font-weight="400">webhooks</text>
<path d="M 497,98 L 497,134" fill="none" stroke="#166534" stroke-width="1.2" stroke-dasharray="5 3" marker-end="url(#arrow_green)"/>
<rect x="450" y="230" width="95" height="50" rx="2" fill="#F7F4EF" stroke="#C9962A" stroke-width="1.2"/>
<rect x="450" y="230" width="95" height="22" rx="2" fill="#C9962A" stroke="#C9962A" stroke-width="1.0"/>
<text x="497.5" y="245" text-anchor="middle" font-family="JetBrains Mono, monospace" font-size="8.2" fill="#FFFFFF" font-weight="700">Logging</text>
<text x="458" y="268" text-anchor="start" font-family="JetBrains Mono, monospace" font-size="7.2" fill="#6B7280" font-weight="400">correlation</text>
<path d="M 497,193 L 497,229" fill="none" stroke="#C9962A" stroke-width="1.2" stroke-dasharray="5 3" marker-end="url(#arrow_gold)"/>
</svg>
