<svg viewBox="0 0 760 470" xmlns="http://www.w3.org/2000/svg" style="width:100%; height:auto;">

<defs>
  <marker id="arrow_navy" markerWidth="7" markerHeight="7" refX="6" refY="3.5" orient="auto"><path d="M0,0 L7,3.5 L0,7 Z" fill="#0B1D3A"/></marker>
  <marker id="arrow_teal" markerWidth="7" markerHeight="7" refX="6" refY="3.5" orient="auto"><path d="M0,0 L7,3.5 L0,7 Z" fill="#0B7285"/></marker>
  <marker id="arrow_gold" markerWidth="7" markerHeight="7" refX="6" refY="3.5" orient="auto"><path d="M0,0 L7,3.5 L0,7 Z" fill="#C9962A"/></marker>
  <marker id="arrow_green" markerWidth="7" markerHeight="7" refX="6" refY="3.5" orient="auto"><path d="M0,0 L7,3.5 L0,7 Z" fill="#166534"/></marker>
  <marker id="arrow_red" markerWidth="7" markerHeight="7" refX="6" refY="3.5" orient="auto"><path d="M0,0 L7,3.5 L0,7 Z" fill="#B91C1C"/></marker>
  <marker id="arrow_gray" markerWidth="7" markerHeight="7" refX="6" refY="3.5" orient="auto"><path d="M0,0 L7,3.5 L0,7 Z" fill="#6B7280"/></marker>
</defs>
<text x="26" y="28" text-anchor="start" font-family="JetBrains Mono, monospace" font-size="14" fill="#0B1D3A" font-weight="700">UML Activity - Program Configuration</text>
<circle cx="380" cy="58" r="8" fill="#0B1D3A"/>
<rect x="260" y="95" width="240" height="32" rx="16" fill="#F7F4EF" stroke="#0B7285" stroke-width="1.2"/>
<text x="380" y="115" text-anchor="middle" font-family="JetBrains Mono, monospace" font-size="7.4" fill="#0B7285" font-weight="700">Select product definition</text>
<line x1="380" y1="77" x2="380" y2="94" stroke="#0B7285" stroke-width="1.2" marker-end="url(#arrow_teal)"/>
<rect x="260" y="153" width="240" height="32" rx="16" fill="#F7F4EF" stroke="#0B7285" stroke-width="1.2"/>
<text x="380" y="173" text-anchor="middle" font-family="JetBrains Mono, monospace" font-size="7.4" fill="#0B7285" font-weight="700">Enter general program data</text>
<line x1="380" y1="135" x2="380" y2="152" stroke="#0B7285" stroke-width="1.2" marker-end="url(#arrow_teal)"/>
<rect x="260" y="211" width="240" height="32" rx="16" fill="#F7F4EF" stroke="#0B7285" stroke-width="1.2"/>
<text x="380" y="231" text-anchor="middle" font-family="JetBrains Mono, monospace" font-size="7.4" fill="#0B7285" font-weight="700">Assign anchor and counterparties</text>
<line x1="380" y1="193" x2="380" y2="210" stroke="#0B7285" stroke-width="1.2" marker-end="url(#arrow_teal)"/>
<rect x="260" y="269" width="240" height="32" rx="16" fill="#F7F4EF" stroke="#C9962A" stroke-width="1.2"/>
<text x="380" y="289" text-anchor="middle" font-family="JetBrains Mono, monospace" font-size="7.4" fill="#C9962A" font-weight="700">Configure fees and flat charges</text>
<line x1="380" y1="251" x2="380" y2="268" stroke="#C9962A" stroke-width="1.2" marker-end="url(#arrow_gold)"/>
<rect x="260" y="327" width="240" height="32" rx="16" fill="#F7F4EF" stroke="#C9962A" stroke-width="1.2"/>
<text x="380" y="347" text-anchor="middle" font-family="JetBrains Mono, monospace" font-size="7.4" fill="#C9962A" font-weight="700">Configure cashflow and disbursement rules</text>
<line x1="380" y1="309" x2="380" y2="326" stroke="#C9962A" stroke-width="1.2" marker-end="url(#arrow_gold)"/>
<polygon points="380,382 450,414 380,446 310,414" fill="#F0EDE8" stroke="#0B1D3A" stroke-width="1.2"/>
<text x="380" y="411" text-anchor="middle" font-family="JetBrains Mono, monospace" font-size="7.4" fill="#0B1D3A" font-weight="700">Complete?</text>
<line x1="380" y1="359" x2="380" y2="381" stroke="#C9962A" stroke-width="1.2" marker-end="url(#arrow_gold)"/>
<path d="M 310,414 L 210,414 L 210,153 L 259,153" fill="none" stroke="#B91C1C" stroke-width="1.2" stroke-dasharray="5 3" marker-end="url(#arrow_red)"/>
<text x="238" y="405" text-anchor="middle" font-family="JetBrains Mono, monospace" font-size="7" fill="#B91C1C" font-weight="400">[no]</text>
<line x1="450" y1="414" x2="600" y2="414" stroke="#166534" stroke-width="1.2" marker-end="url(#arrow_green)"/>
<text x="515" y="406" text-anchor="middle" font-family="JetBrains Mono, monospace" font-size="7" fill="#166534" font-weight="400">[yes] submit for approval</text>
<circle cx="630" cy="414" r="8" fill="#FFFFFF" stroke="#0B1D3A" stroke-width="1.4"/>
<circle cx="630" cy="414" r="4" fill="#0B1D3A"/>
</svg>
