<svg viewBox="0 0 760 340" xmlns="http://www.w3.org/2000/svg" style="width:100%; height:auto;">

<defs>
  <marker id="arrow_navy" markerWidth="7" markerHeight="7" refX="6" refY="3.5" orient="auto"><path d="M0,0 L7,3.5 L0,7 Z" fill="#0B1D3A"/></marker>
  <marker id="arrow_teal" markerWidth="7" markerHeight="7" refX="6" refY="3.5" orient="auto"><path d="M0,0 L7,3.5 L0,7 Z" fill="#0B7285"/></marker>
  <marker id="arrow_gold" markerWidth="7" markerHeight="7" refX="6" refY="3.5" orient="auto"><path d="M0,0 L7,3.5 L0,7 Z" fill="#C9962A"/></marker>
  <marker id="arrow_green" markerWidth="7" markerHeight="7" refX="6" refY="3.5" orient="auto"><path d="M0,0 L7,3.5 L0,7 Z" fill="#166534"/></marker>
  <marker id="arrow_red" markerWidth="7" markerHeight="7" refX="6" refY="3.5" orient="auto"><path d="M0,0 L7,3.5 L0,7 Z" fill="#B91C1C"/></marker>
  <marker id="arrow_gray" markerWidth="7" markerHeight="7" refX="6" refY="3.5" orient="auto"><path d="M0,0 L7,3.5 L0,7 Z" fill="#6B7280"/></marker>
</defs>
<text x="26" y="28" text-anchor="start" font-family="JetBrains Mono, monospace" font-size="14" fill="#0B1D3A" font-weight="700">Frontend Services Layer</text>
<rect x="65" y="145" width="125" height="66" rx="2" fill="#F7F4EF" stroke="#0B7285" stroke-width="1.2"/>
<rect x="65" y="145" width="125" height="22" rx="2" fill="#0B7285" stroke="#0B7285" stroke-width="1.0"/>
<text x="127.5" y="160" text-anchor="middle" font-family="JetBrains Mono, monospace" font-size="8.2" fill="#FFFFFF" font-weight="700">Components</text>
<text x="73" y="183" text-anchor="start" font-family="JetBrains Mono, monospace" font-size="7.2" fill="#6B7280" font-weight="400">forms</text>
<text x="73" y="195" text-anchor="start" font-family="JetBrains Mono, monospace" font-size="7.2" fill="#6B7280" font-weight="400">tables/wizards</text>
<rect x="240" y="145" width="125" height="66" rx="2" fill="#F7F4EF" stroke="#0B1D3A" stroke-width="1.2"/>
<rect x="240" y="145" width="125" height="22" rx="2" fill="#162B52" stroke="#162B52" stroke-width="1.0"/>
<text x="302.5" y="160" text-anchor="middle" font-family="JetBrains Mono, monospace" font-size="8.2" fill="#FFFFFF" font-weight="700">Hooks</text>
<text x="248" y="183" text-anchor="start" font-family="JetBrains Mono, monospace" font-size="7.2" fill="#6B7280" font-weight="400">useProgramForm</text>
<text x="248" y="195" text-anchor="start" font-family="JetBrains Mono, monospace" font-size="7.2" fill="#6B7280" font-weight="400">useInvoiceForm</text>
<rect x="415" y="145" width="130" height="66" rx="2" fill="#F7F4EF" stroke="#0B7285" stroke-width="1.2"/>
<rect x="415" y="145" width="130" height="22" rx="2" fill="#0B7285" stroke="#0B7285" stroke-width="1.0"/>
<text x="480.0" y="160" text-anchor="middle" font-family="JetBrains Mono, monospace" font-size="8.2" fill="#FFFFFF" font-weight="700">Feature Services</text>
<text x="423" y="183" text-anchor="start" font-family="JetBrains Mono, monospace" font-size="7.2" fill="#6B7280" font-weight="400">typed functions</text>
<text x="423" y="195" text-anchor="start" font-family="JetBrains Mono, monospace" font-size="7.2" fill="#6B7280" font-weight="400">endpoint mapping</text>
<rect x="610" y="70" width="115" height="58" rx="2" fill="#F7F4EF" stroke="#166534" stroke-width="1.2"/>
<rect x="610" y="70" width="115" height="22" rx="2" fill="#166534" stroke="#166534" stroke-width="1.0"/>
<text x="667.5" y="85" text-anchor="middle" font-family="JetBrains Mono, monospace" font-size="8.2" fill="#FFFFFF" font-weight="700">Axios Client</text>
<text x="618" y="108" text-anchor="start" font-family="JetBrains Mono, monospace" font-size="7.2" fill="#6B7280" font-weight="400">Bearer token</text>
<rect x="610" y="230" width="115" height="58" rx="2" fill="#F7F4EF" stroke="#C9962A" stroke-width="1.2"/>
<rect x="610" y="230" width="115" height="22" rx="2" fill="#C9962A" stroke="#C9962A" stroke-width="1.0"/>
<text x="667.5" y="245" text-anchor="middle" font-family="JetBrains Mono, monospace" font-size="8.2" fill="#FFFFFF" font-weight="700">Types</text>
<text x="618" y="268" text-anchor="start" font-family="JetBrains Mono, monospace" font-size="7.2" fill="#6B7280" font-weight="400">DTO models</text>
<line x1="190" y1="178" x2="239" y2="178" stroke="#0B1D3A" stroke-width="1.2" marker-end="url(#arrow_navy)"/>
<line x1="365" y1="178" x2="414" y2="178" stroke="#0B1D3A" stroke-width="1.2" marker-end="url(#arrow_navy)"/>
<line x1="545" y1="165" x2="609" y2="99" stroke="#166534" stroke-width="1.2" marker-end="url(#arrow_green)"/>
<line x1="545" y1="191" x2="609" y2="259" stroke="#C9962A" stroke-width="1.2" marker-end="url(#arrow_gold)"/>
</svg>
