<svg viewBox="0 0 920 560" xmlns="http://www.w3.org/2000/svg" style="width:100%; height:auto;">

<defs>
  <marker id="arrow_navy" markerWidth="7" markerHeight="7" refX="6" refY="3.5" orient="auto"><path d="M0,0 L7,3.5 L0,7 Z" fill="#0B1D3A"/></marker>
  <marker id="arrow_teal" markerWidth="7" markerHeight="7" refX="6" refY="3.5" orient="auto"><path d="M0,0 L7,3.5 L0,7 Z" fill="#0B7285"/></marker>
  <marker id="arrow_gold" markerWidth="7" markerHeight="7" refX="6" refY="3.5" orient="auto"><path d="M0,0 L7,3.5 L0,7 Z" fill="#C9962A"/></marker>
  <marker id="arrow_green" markerWidth="7" markerHeight="7" refX="6" refY="3.5" orient="auto"><path d="M0,0 L7,3.5 L0,7 Z" fill="#166534"/></marker>
  <marker id="arrow_red" markerWidth="7" markerHeight="7" refX="6" refY="3.5" orient="auto"><path d="M0,0 L7,3.5 L0,7 Z" fill="#B91C1C"/></marker>
  <marker id="arrow_gray" markerWidth="7" markerHeight="7" refX="6" refY="3.5" orient="auto"><path d="M0,0 L7,3.5 L0,7 Z" fill="#6B7280"/></marker>
</defs>
<text x="26" y="28" text-anchor="start" font-family="JetBrains Mono, monospace" font-size="14" fill="#0B1D3A" font-weight="700">UML Use Case Diagram - Back Office</text>
<circle cx="85" cy="150" r="8" fill="#FFFFFF" stroke="#0B7285" stroke-width="1.2"/>
<line x1="85" y1="158" x2="85" y2="188" stroke="#0B7285" stroke-width="1.2"/>
<line x1="67" y1="170" x2="103" y2="170" stroke="#0B7285" stroke-width="1.2"/>
<line x1="85" y1="188" x2="69" y2="210" stroke="#0B7285" stroke-width="1.2"/>
<line x1="85" y1="188" x2="101" y2="210" stroke="#0B7285" stroke-width="1.2"/>
<text x="85" y="228" text-anchor="middle" font-family="JetBrains Mono, monospace" font-size="7" fill="#0B7285" font-weight="700">Bank</text>
<text x="85" y="239" text-anchor="middle" font-family="JetBrains Mono, monospace" font-size="7" fill="#0B7285" font-weight="700">Maker</text>
<circle cx="85" cy="365" r="8" fill="#FFFFFF" stroke="#166534" stroke-width="1.2"/>
<line x1="85" y1="373" x2="85" y2="403" stroke="#166534" stroke-width="1.2"/>
<line x1="67" y1="385" x2="103" y2="385" stroke="#166534" stroke-width="1.2"/>
<line x1="85" y1="403" x2="69" y2="425" stroke="#166534" stroke-width="1.2"/>
<line x1="85" y1="403" x2="101" y2="425" stroke="#166534" stroke-width="1.2"/>
<text x="85" y="443" text-anchor="middle" font-family="JetBrains Mono, monospace" font-size="7" fill="#166534" font-weight="700">Bank</text>
<text x="85" y="454" text-anchor="middle" font-family="JetBrains Mono, monospace" font-size="7" fill="#166534" font-weight="700">Checker</text>
<rect x="210" y="70" width="650" height="440" rx="2" fill="#FFFFFF" stroke="#0B1D3A" stroke-width="1.2"/>
<text x="535" y="94" text-anchor="middle" font-family="JetBrains Mono, monospace" font-size="8" fill="#0B1D3A" font-weight="700">SCF Back Office Boundary</text>
<ellipse cx="390.0" cy="125.0" rx="75.0" ry="24.0" fill="#FFFFFF" stroke="#0B7285" stroke-width="1.2"/>
<text x="390" y="120" text-anchor="middle" font-family="JetBrains Mono, monospace" font-size="7.2" fill="#1A1A1A" font-weight="600">Create / edit</text>
<text x="390" y="131" text-anchor="middle" font-family="JetBrains Mono, monospace" font-size="7.2" fill="#1A1A1A" font-weight="600">product</text>
<ellipse cx="390.0" cy="225.0" rx="75.0" ry="24.0" fill="#FFFFFF" stroke="#0B7285" stroke-width="1.2"/>
<text x="390" y="220" text-anchor="middle" font-family="JetBrains Mono, monospace" font-size="7.2" fill="#1A1A1A" font-weight="600">Configure</text>
<text x="390" y="231" text-anchor="middle" font-family="JetBrains Mono, monospace" font-size="7.2" fill="#1A1A1A" font-weight="600">program</text>
<ellipse cx="390.0" cy="325.0" rx="75.0" ry="24.0" fill="#FFFFFF" stroke="#0B7285" stroke-width="1.2"/>
<text x="390" y="320" text-anchor="middle" font-family="JetBrains Mono, monospace" font-size="7.2" fill="#1A1A1A" font-weight="600">Onboard</text>
<text x="390" y="331" text-anchor="middle" font-family="JetBrains Mono, monospace" font-size="7.2" fill="#1A1A1A" font-weight="600">counterparty</text>
<ellipse cx="655.0" cy="225.0" rx="75.0" ry="24.0" fill="#FFFFFF" stroke="#C9962A" stroke-width="1.2"/>
<text x="655" y="220" text-anchor="middle" font-family="JetBrains Mono, monospace" font-size="7.2" fill="#1A1A1A" font-weight="600">Submit</text>
<text x="655" y="231" text-anchor="middle" font-family="JetBrains Mono, monospace" font-size="7.2" fill="#1A1A1A" font-weight="600">pending change</text>
<ellipse cx="390.0" cy="445.0" rx="75.0" ry="24.0" fill="#FFFFFF" stroke="#166534" stroke-width="1.2"/>
<text x="390" y="440" text-anchor="middle" font-family="JetBrains Mono, monospace" font-size="7.2" fill="#1A1A1A" font-weight="600">Review pending</text>
<text x="390" y="451" text-anchor="middle" font-family="JetBrains Mono, monospace" font-size="7.2" fill="#1A1A1A" font-weight="600">operation</text>
<ellipse cx="655.0" cy="445.0" rx="75.0" ry="24.0" fill="#FFFFFF" stroke="#166534" stroke-width="1.2"/>
<text x="655" y="440" text-anchor="middle" font-family="JetBrains Mono, monospace" font-size="7.2" fill="#1A1A1A" font-weight="600">Approve or</text>
<text x="655" y="451" text-anchor="middle" font-family="JetBrains Mono, monospace" font-size="7.2" fill="#1A1A1A" font-weight="600">reject</text>
<line x1="112" y1="190" x2="315" y2="125" stroke="#6B7280" stroke-width="1.2"/>
<line x1="112" y1="190" x2="315" y2="225" stroke="#6B7280" stroke-width="1.2"/>
<line x1="112" y1="190" x2="315" y2="325" stroke="#6B7280" stroke-width="1.2"/>
<line x1="112" y1="405" x2="315" y2="445" stroke="#6B7280" stroke-width="1.2"/>
<line x1="465" y1="125" x2="580" y2="207" stroke="#C9962A" stroke-width="1.2" stroke-dasharray="5 3" marker-end="url(#arrow_gold)"/>
<text x="520" y="158" text-anchor="middle" font-family="JetBrains Mono, monospace" font-size="6.4" fill="#C9962A" font-weight="400">&lt;&lt;include&gt;&gt;</text>
<line x1="465" y1="225" x2="580" y2="225" stroke="#C9962A" stroke-width="1.2" stroke-dasharray="5 3" marker-end="url(#arrow_gold)"/>
<text x="522" y="216" text-anchor="middle" font-family="JetBrains Mono, monospace" font-size="6.4" fill="#C9962A" font-weight="400">&lt;&lt;include&gt;&gt;</text>
<line x1="465" y1="325" x2="580" y2="243" stroke="#C9962A" stroke-width="1.2" stroke-dasharray="5 3" marker-end="url(#arrow_gold)"/>
<text x="520" y="286" text-anchor="middle" font-family="JetBrains Mono, monospace" font-size="6.4" fill="#C9962A" font-weight="400">&lt;&lt;include&gt;&gt;</text>
<line x1="465" y1="445" x2="580" y2="445" stroke="#166534" stroke-width="1.2" stroke-dasharray="5 3" marker-end="url(#arrow_green)"/>
<text x="522" y="436" text-anchor="middle" font-family="JetBrains Mono, monospace" font-size="6.4" fill="#166534" font-weight="400">&lt;&lt;include&gt;&gt;</text>
</svg>
