<svg viewBox="0 0 720 340" xmlns="http://www.w3.org/2000/svg" style="width:100%; height:auto;">

  <defs>
    <marker id="arrow_navy" markerWidth="7" markerHeight="7" refX="6" refY="3.5" orient="auto"><path d="M0,0 L7,3.5 L0,7 Z" fill="#0B1D3A"/></marker>
    <marker id="arrow_green" markerWidth="7" markerHeight="7" refX="6" refY="3.5" orient="auto"><path d="M0,0 L7,3.5 L0,7 Z" fill="#166534"/></marker>
    <marker id="arrow_gold" markerWidth="7" markerHeight="7" refX="6" refY="3.5" orient="auto"><path d="M0,0 L7,3.5 L0,7 Z" fill="#C9962A"/></marker>
  </defs>

  <text x="25" y="28" font-family="JetBrains Mono, monospace" font-size="14" fill="#0B1D3A" font-weight="700">Invoice Upload Component Flow</text>
  <rect x="35" y="145" width="130" height="82" rx="2" fill="#F7F4EF" stroke="#0B7285" stroke-width="1.4"/>
  <rect x="35" y="145" width="130" height="22" rx="2" fill="#0B7285"/>
  <text x="100.0" y="160" text-anchor="middle" font-family="JetBrains Mono, monospace" font-size="8" fill="white" font-weight="600">UPLOAD_FORM</text>
  <text x="42" y="182" font-family="JetBrains Mono, monospace" font-size="6.8" fill="#6B7280" font-weight="400">orchestrator</text>
  <text x="42" y="194" font-family="JetBrains Mono, monospace" font-size="6.8" fill="#0B7285" font-weight="600">program context</text>
  <rect x="215" y="55" width="125" height="78" rx="2" fill="#F7F4EF" stroke="#0B1D3A" stroke-width="1.4"/>
  <rect x="215" y="55" width="125" height="22" rx="2" fill="#162B52"/>
  <text x="277.5" y="70" text-anchor="middle" font-family="JetBrains Mono, monospace" font-size="8" fill="white" font-weight="600">EXCEL_UPLOADER</text>
  <text x="222" y="92" font-family="JetBrains Mono, monospace" font-size="6.8" fill="#6B7280" font-weight="400">.xlsx/.xls</text>
  <text x="222" y="104" font-family="JetBrains Mono, monospace" font-size="6.8" fill="#0B7285" font-weight="600">drag-drop</text>
  <rect x="215" y="235" width="125" height="78" rx="2" fill="#F7F4EF" stroke="#C9962A" stroke-width="1.4"/>
  <rect x="215" y="235" width="125" height="22" rx="2" fill="#C9962A"/>
  <text x="277.5" y="250" text-anchor="middle" font-family="JetBrains Mono, monospace" font-size="8" fill="white" font-weight="600">SCANNED_UPLOAD</text>
  <text x="222" y="272" font-family="JetBrains Mono, monospace" font-size="6.8" fill="#6B7280" font-weight="400">PDF/images</text>
  <text x="222" y="284" font-family="JetBrains Mono, monospace" font-size="6.8" fill="#C9962A" font-weight="600">OCR path</text>
  <rect x="390" y="145" width="125" height="82" rx="2" fill="#F7F4EF" stroke="#0B7285" stroke-width="1.4"/>
  <rect x="390" y="145" width="125" height="22" rx="2" fill="#0B7285"/>
  <text x="452.5" y="160" text-anchor="middle" font-family="JetBrains Mono, monospace" font-size="8" fill="white" font-weight="600">UPLOAD_TABLE</text>
  <text x="397" y="182" font-family="JetBrains Mono, monospace" font-size="6.8" fill="#6B7280" font-weight="400">row validation</text>
  <text x="397" y="194" font-family="JetBrains Mono, monospace" font-size="6.8" fill="#0B7285" font-weight="600">errors/warnings</text>
  <rect x="565" y="55" width="125" height="78" rx="2" fill="#F7F4EF" stroke="#0B1D3A" stroke-width="1.4"/>
  <rect x="565" y="55" width="125" height="22" rx="2" fill="#162B52"/>
  <text x="627.5" y="70" text-anchor="middle" font-family="JetBrains Mono, monospace" font-size="8" fill="white" font-weight="600">SUMMARY_CARD</text>
  <text x="572" y="92" font-family="JetBrains Mono, monospace" font-size="6.8" fill="#6B7280" font-weight="400">valid/warning</text>
  <text x="572" y="104" font-family="JetBrains Mono, monospace" font-size="6.8" fill="#0B7285" font-weight="600">error totals</text>
  <rect x="565" y="235" width="125" height="78" rx="2" fill="#F7F4EF" stroke="#C9962A" stroke-width="1.4"/>
  <rect x="565" y="235" width="125" height="22" rx="2" fill="#C9962A"/>
  <text x="627.5" y="250" text-anchor="middle" font-family="JetBrains Mono, monospace" font-size="8" fill="white" font-weight="600">REPORTS</text>
  <text x="572" y="272" font-family="JetBrains Mono, monospace" font-size="6.8" fill="#6B7280" font-weight="400">eligibility</text>
  <text x="572" y="284" font-family="JetBrains Mono, monospace" font-size="6.8" fill="#C9962A" font-weight="600">rejection file</text>
  <line x1="165" y1="166" x2="214" y2="94" stroke="#0B1D3A" stroke-width="1.4" marker-end="url(#arrow_navy)"/>
  <line x1="165" y1="206" x2="214" y2="274" stroke="#C9962A" stroke-width="1.4" marker-end="url(#arrow_gold)"/>
  <line x1="340" y1="94" x2="389" y2="166" stroke="#0B1D3A" stroke-width="1.4" marker-end="url(#arrow_navy)"/>
  <line x1="340" y1="274" x2="389" y2="206" stroke="#C9962A" stroke-width="1.4" marker-end="url(#arrow_gold)"/>
  <line x1="515" y1="166" x2="564" y2="94" stroke="#0B1D3A" stroke-width="1.4" marker-end="url(#arrow_navy)"/>
  <line x1="515" y1="206" x2="564" y2="274" stroke="#C9962A" stroke-width="1.4" marker-end="url(#arrow_gold)"/>

</svg>
