<svg viewBox="0 0 920 670" xmlns="http://www.w3.org/2000/svg" style="width:100%; height:auto;">

<defs>
  <marker id="arrow_navy" markerWidth="7" markerHeight="7" refX="6" refY="3.5" orient="auto"><path d="M0,0 L7,3.5 L0,7 Z" fill="#0B1D3A"/></marker>
  <marker id="arrow_teal" markerWidth="7" markerHeight="7" refX="6" refY="3.5" orient="auto"><path d="M0,0 L7,3.5 L0,7 Z" fill="#0B7285"/></marker>
  <marker id="arrow_gold" markerWidth="7" markerHeight="7" refX="6" refY="3.5" orient="auto"><path d="M0,0 L7,3.5 L0,7 Z" fill="#C9962A"/></marker>
  <marker id="arrow_green" markerWidth="7" markerHeight="7" refX="6" refY="3.5" orient="auto"><path d="M0,0 L7,3.5 L0,7 Z" fill="#166534"/></marker>
  <marker id="arrow_red" markerWidth="7" markerHeight="7" refX="6" refY="3.5" orient="auto"><path d="M0,0 L7,3.5 L0,7 Z" fill="#B91C1C"/></marker>
  <marker id="arrow_gray" markerWidth="7" markerHeight="7" refX="6" refY="3.5" orient="auto"><path d="M0,0 L7,3.5 L0,7 Z" fill="#6B7280"/></marker>
</defs>
<text x="26" y="28" text-anchor="start" font-family="JetBrains Mono, monospace" font-size="14" fill="#0B1D3A" font-weight="700">UML Use Case Diagram - Middle Office</text>
<circle cx="85" cy="170" r="8" fill="#FFFFFF" stroke="#0B7285" stroke-width="1.2"/>
<line x1="85" y1="178" x2="85" y2="208" stroke="#0B7285" stroke-width="1.2"/>
<line x1="67" y1="190" x2="103" y2="190" stroke="#0B7285" stroke-width="1.2"/>
<line x1="85" y1="208" x2="69" y2="230" stroke="#0B7285" stroke-width="1.2"/>
<line x1="85" y1="208" x2="101" y2="230" stroke="#0B7285" stroke-width="1.2"/>
<text x="85" y="248" text-anchor="middle" font-family="JetBrains Mono, monospace" font-size="7" fill="#0B7285" font-weight="700">Middle Office</text>
<text x="85" y="259" text-anchor="middle" font-family="JetBrains Mono, monospace" font-size="7" fill="#0B7285" font-weight="700">Analyst</text>
<circle cx="85" cy="500" r="8" fill="#FFFFFF" stroke="#0B1D3A" stroke-width="1.2"/>
<line x1="85" y1="508" x2="85" y2="538" stroke="#0B1D3A" stroke-width="1.2"/>
<line x1="67" y1="520" x2="103" y2="520" stroke="#0B1D3A" stroke-width="1.2"/>
<line x1="85" y1="538" x2="69" y2="560" stroke="#0B1D3A" stroke-width="1.2"/>
<line x1="85" y1="538" x2="101" y2="560" stroke="#0B1D3A" stroke-width="1.2"/>
<text x="85" y="578" text-anchor="middle" font-family="JetBrains Mono, monospace" font-size="7" fill="#0B1D3A" font-weight="700">Compliance /</text>
<text x="85" y="589" text-anchor="middle" font-family="JetBrains Mono, monospace" font-size="7" fill="#0B1D3A" font-weight="700">Audit</text>
<rect x="210" y="70" width="650" height="550" rx="2" fill="#FFFFFF" stroke="#0B1D3A" stroke-width="1.2"/>
<text x="535" y="94" text-anchor="middle" font-family="JetBrains Mono, monospace" font-size="8" fill="#0B1D3A" font-weight="700">SCF Middle Office Boundary</text>
<ellipse cx="390.0" cy="125.0" rx="77.5" ry="24.0" fill="#FFFFFF" stroke="#0B7285" stroke-width="1.2"/>
<text x="390" y="120" text-anchor="middle" font-family="JetBrains Mono, monospace" font-size="7.2" fill="#1A1A1A" font-weight="600">Monitor</text>
<text x="390" y="131" text-anchor="middle" font-family="JetBrains Mono, monospace" font-size="7.2" fill="#1A1A1A" font-weight="600">transactions</text>
<ellipse cx="655.0" cy="125.0" rx="77.5" ry="24.0" fill="#FFFFFF" stroke="#0B7285" stroke-width="1.2"/>
<text x="655" y="120" text-anchor="middle" font-family="JetBrains Mono, monospace" font-size="7.2" fill="#1A1A1A" font-weight="600">Filter inquiry</text>
<text x="655" y="131" text-anchor="middle" font-family="JetBrains Mono, monospace" font-size="7.2" fill="#1A1A1A" font-weight="600">results</text>
<ellipse cx="390.0" cy="245.0" rx="77.5" ry="24.0" fill="#FFFFFF" stroke="#B91C1C" stroke-width="1.2"/>
<text x="390" y="240" text-anchor="middle" font-family="JetBrains Mono, monospace" font-size="7.2" fill="#1A1A1A" font-weight="600">Follow failed</text>
<text x="390" y="251" text-anchor="middle" font-family="JetBrains Mono, monospace" font-size="7.2" fill="#1A1A1A" font-weight="600">payments</text>
<ellipse cx="390.0" cy="365.0" rx="77.5" ry="24.0" fill="#FFFFFF" stroke="#C9962A" stroke-width="1.2"/>
<text x="390" y="360" text-anchor="middle" font-family="JetBrains Mono, monospace" font-size="7.2" fill="#1A1A1A" font-weight="600">Export operational</text>
<text x="390" y="371" text-anchor="middle" font-family="JetBrains Mono, monospace" font-size="7.2" fill="#1A1A1A" font-weight="600">report</text>
<ellipse cx="655.0" cy="535.0" rx="77.5" ry="24.0" fill="#FFFFFF" stroke="#0B1D3A" stroke-width="1.2"/>
<text x="655" y="530" text-anchor="middle" font-family="JetBrains Mono, monospace" font-size="7.2" fill="#1A1A1A" font-weight="600">Consult audit</text>
<text x="655" y="541" text-anchor="middle" font-family="JetBrains Mono, monospace" font-size="7.2" fill="#1A1A1A" font-weight="600">trail</text>
<ellipse cx="390.0" cy="485.0" rx="77.5" ry="24.0" fill="#FFFFFF" stroke="#166534" stroke-width="1.2"/>
<text x="390" y="480" text-anchor="middle" font-family="JetBrains Mono, monospace" font-size="7.2" fill="#1A1A1A" font-weight="600">Analyze portfolio</text>
<text x="390" y="491" text-anchor="middle" font-family="JetBrains Mono, monospace" font-size="7.2" fill="#1A1A1A" font-weight="600">exposure</text>
<line x1="112" y1="210" x2="312" y2="125" stroke="#6B7280" stroke-width="1.2"/>
<line x1="112" y1="210" x2="312" y2="245" stroke="#6B7280" stroke-width="1.2"/>
<line x1="112" y1="210" x2="312" y2="365" stroke="#6B7280" stroke-width="1.2"/>
<line x1="112" y1="210" x2="312" y2="485" stroke="#6B7280" stroke-width="1.2"/>
<line x1="112" y1="540" x2="577" y2="535" stroke="#6B7280" stroke-width="1.2"/>
<line x1="468" y1="125" x2="577" y2="125" stroke="#0B7285" stroke-width="1.2" stroke-dasharray="5 3" marker-end="url(#arrow_teal)"/>
<text x="522" y="116" text-anchor="middle" font-family="JetBrains Mono, monospace" font-size="6.4" fill="#0B7285" font-weight="400">&lt;&lt;include&gt;&gt;</text>
</svg>
