<svg viewBox="0 0 700 335" xmlns="http://www.w3.org/2000/svg" style="width:100%; height:auto;">

  <defs>
    <marker id="arrow_navy" markerWidth="7" markerHeight="7" refX="6" refY="3.5" orient="auto"><path d="M0,0 L7,3.5 L0,7 Z" fill="#0B1D3A"/></marker>
    <marker id="arrow_green" markerWidth="7" markerHeight="7" refX="6" refY="3.5" orient="auto"><path d="M0,0 L7,3.5 L0,7 Z" fill="#166534"/></marker>
    <marker id="arrow_gold" markerWidth="7" markerHeight="7" refX="6" refY="3.5" orient="auto"><path d="M0,0 L7,3.5 L0,7 Z" fill="#C9962A"/></marker>
  </defs>

  <text x="25" y="28" font-family="JetBrains Mono, monospace" font-size="14" fill="#0B1D3A" font-weight="700">Frontend Services Layer</text>
  <rect x="35" y="140" width="120" height="82" rx="2" fill="#F7F4EF" stroke="#0B7285" stroke-width="1.4"/>
  <rect x="35" y="140" width="120" height="22" rx="2" fill="#0B7285"/>
  <text x="95.0" y="155" text-anchor="middle" font-family="JetBrains Mono, monospace" font-size="8" fill="white" font-weight="600">COMPONENTS</text>
  <text x="42" y="177" font-family="JetBrains Mono, monospace" font-size="6.8" fill="#6B7280" font-weight="400">forms/tables</text>
  <text x="42" y="189" font-family="JetBrains Mono, monospace" font-size="6.8" fill="#0B7285" font-weight="600">modals/wizards</text>
  <rect x="205" y="140" width="120" height="82" rx="2" fill="#F7F4EF" stroke="#0B1D3A" stroke-width="1.4"/>
  <rect x="205" y="140" width="120" height="22" rx="2" fill="#162B52"/>
  <text x="265.0" y="155" text-anchor="middle" font-family="JetBrains Mono, monospace" font-size="8" fill="white" font-weight="600">HOOKS</text>
  <text x="212" y="177" font-family="JetBrains Mono, monospace" font-size="6.8" fill="#6B7280" font-weight="400">useProgramForm</text>
  <text x="212" y="189" font-family="JetBrains Mono, monospace" font-size="6.8" fill="#0B7285" font-weight="600">useInvoiceForm</text>
  <rect x="375" y="140" width="125" height="82" rx="2" fill="#F7F4EF" stroke="#0B7285" stroke-width="1.4"/>
  <rect x="375" y="140" width="125" height="22" rx="2" fill="#0B7285"/>
  <text x="437.5" y="155" text-anchor="middle" font-family="JetBrains Mono, monospace" font-size="8" fill="white" font-weight="600">SERVICES</text>
  <text x="382" y="177" font-family="JetBrains Mono, monospace" font-size="6.8" fill="#6B7280" font-weight="400">typed functions</text>
  <text x="382" y="189" font-family="JetBrains Mono, monospace" font-size="6.8" fill="#0B7285" font-weight="600">endpoint mapping</text>
  <rect x="550" y="60" width="120" height="78" rx="2" fill="#F7F4EF" stroke="#166534" stroke-width="1.4"/>
  <rect x="550" y="60" width="120" height="22" rx="2" fill="#166534"/>
  <text x="610.0" y="75" text-anchor="middle" font-family="JetBrains Mono, monospace" font-size="8" fill="white" font-weight="600">API_CLIENT</text>
  <text x="557" y="97" font-family="JetBrains Mono, monospace" font-size="6.8" fill="#6B7280" font-weight="400">Axios</text>
  <text x="557" y="109" font-family="JetBrains Mono, monospace" font-size="6.8" fill="#166534" font-weight="600">Bearer token</text>
  <rect x="550" y="230" width="120" height="78" rx="2" fill="#F7F4EF" stroke="#C9962A" stroke-width="1.4"/>
  <rect x="550" y="230" width="120" height="22" rx="2" fill="#C9962A"/>
  <text x="610.0" y="245" text-anchor="middle" font-family="JetBrains Mono, monospace" font-size="8" fill="white" font-weight="600">TYPES</text>
  <text x="557" y="267" font-family="JetBrains Mono, monospace" font-size="6.8" fill="#6B7280" font-weight="400">invoiceUpload.ts</text>
  <text x="557" y="279" font-family="JetBrains Mono, monospace" font-size="6.8" fill="#0B7285" font-weight="600">scfTransaction.ts</text>
  <line x1="155" y1="181" x2="204" y2="181" stroke="#0B1D3A" stroke-width="1.4" marker-end="url(#arrow_navy)"/>
  <line x1="325" y1="181" x2="374" y2="181" stroke="#0B1D3A" stroke-width="1.4" marker-end="url(#arrow_navy)"/>
  <line x1="500" y1="161" x2="549" y2="99" stroke="#166534" stroke-width="1.4" marker-end="url(#arrow_green)"/>
  <line x1="500" y1="201" x2="549" y2="269" stroke="#C9962A" stroke-width="1.4" marker-end="url(#arrow_gold)"/>

</svg>
