<svg viewBox="0 0 820 470" xmlns="http://www.w3.org/2000/svg" style="width:100%; height:auto;">

<defs>
  <marker id="arrow_navy" markerWidth="7" markerHeight="7" refX="6" refY="3.5" orient="auto"><path d="M0,0 L7,3.5 L0,7 Z" fill="#0B1D3A"/></marker>
  <marker id="arrow_teal" markerWidth="7" markerHeight="7" refX="6" refY="3.5" orient="auto"><path d="M0,0 L7,3.5 L0,7 Z" fill="#0B7285"/></marker>
  <marker id="arrow_gold" markerWidth="7" markerHeight="7" refX="6" refY="3.5" orient="auto"><path d="M0,0 L7,3.5 L0,7 Z" fill="#C9962A"/></marker>
  <marker id="arrow_green" markerWidth="7" markerHeight="7" refX="6" refY="3.5" orient="auto"><path d="M0,0 L7,3.5 L0,7 Z" fill="#166534"/></marker>
  <marker id="arrow_red" markerWidth="7" markerHeight="7" refX="6" refY="3.5" orient="auto"><path d="M0,0 L7,3.5 L0,7 Z" fill="#B91C1C"/></marker>
  <marker id="arrow_gray" markerWidth="7" markerHeight="7" refX="6" refY="3.5" orient="auto"><path d="M0,0 L7,3.5 L0,7 Z" fill="#6B7280"/></marker>
</defs>
<text x="26" y="28" text-anchor="start" font-family="JetBrains Mono, monospace" font-size="14" fill="#0B1D3A" font-weight="700">Use Case Diagram - Middle Office</text>
<circle cx="80" cy="170" r="8" fill="#FFFFFF" stroke="#0B7285" stroke-width="1.2"/>
<line x1="80" y1="178" x2="80" y2="208" stroke="#0B7285" stroke-width="1.2"/>
<line x1="62" y1="190" x2="98" y2="190" stroke="#0B7285" stroke-width="1.2"/>
<line x1="80" y1="208" x2="64" y2="230" stroke="#0B7285" stroke-width="1.2"/>
<line x1="80" y1="208" x2="96" y2="230" stroke="#0B7285" stroke-width="1.2"/>
<text x="80" y="248" text-anchor="middle" font-family="JetBrains Mono, monospace" font-size="7" fill="#0B7285" font-weight="700">Middle Office</text>
<text x="80" y="259" text-anchor="middle" font-family="JetBrains Mono, monospace" font-size="7" fill="#0B7285" font-weight="700">Analyst</text>
<circle cx="80" cy="330" r="8" fill="#FFFFFF" stroke="#0B1D3A" stroke-width="1.2"/>
<line x1="80" y1="338" x2="80" y2="368" stroke="#0B1D3A" stroke-width="1.2"/>
<line x1="62" y1="350" x2="98" y2="350" stroke="#0B1D3A" stroke-width="1.2"/>
<line x1="80" y1="368" x2="64" y2="390" stroke="#0B1D3A" stroke-width="1.2"/>
<line x1="80" y1="368" x2="96" y2="390" stroke="#0B1D3A" stroke-width="1.2"/>
<text x="80" y="408" text-anchor="middle" font-family="JetBrains Mono, monospace" font-size="7" fill="#0B1D3A" font-weight="700">Compliance /</text>
<text x="80" y="419" text-anchor="middle" font-family="JetBrains Mono, monospace" font-size="7" fill="#0B1D3A" font-weight="700">Audit</text>
<rect x="180" y="55" width="580" height="360" rx="2" fill="#FFFFFF" stroke="#0B1D3A" stroke-width="1.2"/>
<text x="470" y="78" text-anchor="middle" font-family="JetBrains Mono, monospace" font-size="8" fill="#0B1D3A" font-weight="700">SCF Middle Office Boundary</text>
<ellipse cx="330.0" cy="130.0" rx="77.5" ry="24.0" fill="#FFFFFF" stroke="#0B7285" stroke-width="1.2"/>
<text x="330" y="125" text-anchor="middle" font-family="JetBrains Mono, monospace" font-size="7.2" fill="#1A1A1A" font-weight="600">Monitor</text>
<text x="330" y="136" text-anchor="middle" font-family="JetBrains Mono, monospace" font-size="7.2" fill="#1A1A1A" font-weight="600">transactions</text>
<ellipse cx="565.0" cy="130.0" rx="77.5" ry="24.0" fill="#FFFFFF" stroke="#0B7285" stroke-width="1.2"/>
<text x="565" y="125" text-anchor="middle" font-family="JetBrains Mono, monospace" font-size="7.2" fill="#1A1A1A" font-weight="600">Filter inquiry</text>
<text x="565" y="136" text-anchor="middle" font-family="JetBrains Mono, monospace" font-size="7.2" fill="#1A1A1A" font-weight="600">results</text>
<ellipse cx="330.0" cy="220.0" rx="77.5" ry="24.0" fill="#FFFFFF" stroke="#B91C1C" stroke-width="1.2"/>
<text x="330" y="215" text-anchor="middle" font-family="JetBrains Mono, monospace" font-size="7.2" fill="#1A1A1A" font-weight="600">Follow failed</text>
<text x="330" y="226" text-anchor="middle" font-family="JetBrains Mono, monospace" font-size="7.2" fill="#1A1A1A" font-weight="600">payments</text>
<ellipse cx="565.0" cy="220.0" rx="77.5" ry="24.0" fill="#FFFFFF" stroke="#C9962A" stroke-width="1.2"/>
<text x="565" y="215" text-anchor="middle" font-family="JetBrains Mono, monospace" font-size="7.2" fill="#1A1A1A" font-weight="600">Export operational</text>
<text x="565" y="226" text-anchor="middle" font-family="JetBrains Mono, monospace" font-size="7.2" fill="#1A1A1A" font-weight="600">report</text>
<ellipse cx="330.0" cy="320.0" rx="77.5" ry="24.0" fill="#FFFFFF" stroke="#0B1D3A" stroke-width="1.2"/>
<text x="330" y="315" text-anchor="middle" font-family="JetBrains Mono, monospace" font-size="7.2" fill="#1A1A1A" font-weight="600">Consult audit</text>
<text x="330" y="326" text-anchor="middle" font-family="JetBrains Mono, monospace" font-size="7.2" fill="#1A1A1A" font-weight="600">trail</text>
<ellipse cx="565.0" cy="320.0" rx="77.5" ry="24.0" fill="#FFFFFF" stroke="#166534" stroke-width="1.2"/>
<text x="565" y="315" text-anchor="middle" font-family="JetBrains Mono, monospace" font-size="7.2" fill="#1A1A1A" font-weight="600">Analyze portfolio</text>
<text x="565" y="326" text-anchor="middle" font-family="JetBrains Mono, monospace" font-size="7.2" fill="#1A1A1A" font-weight="600">exposure</text>
<line x1="100" y1="210" x2="255" y2="130" stroke="#6B7280" stroke-width="1.2"/>
<line x1="100" y1="210" x2="490" y2="130" stroke="#6B7280" stroke-width="1.2"/>
<line x1="100" y1="210" x2="255" y2="220" stroke="#6B7280" stroke-width="1.2"/>
<line x1="100" y1="210" x2="490" y2="220" stroke="#6B7280" stroke-width="1.2"/>
<line x1="100" y1="210" x2="490" y2="320" stroke="#6B7280" stroke-width="1.2"/>
<line x1="100" y1="370" x2="255" y2="320" stroke="#6B7280" stroke-width="1.2"/>
<line x1="405" y1="130" x2="490" y2="130" stroke="#0B7285" stroke-width="1.2" stroke-dasharray="5 3" marker-end="url(#arrow_teal)"/>
<text x="448" y="121" text-anchor="middle" font-family="JetBrains Mono, monospace" font-size="6.4" fill="#0B7285" font-weight="400">&lt;&lt;include&gt;&gt;</text>
</svg>
