<svg viewBox="0 0 700 260" xmlns="http://www.w3.org/2000/svg" style="width:100%; height:auto;">

  <defs>
    <marker id="arrow_navy" markerWidth="7" markerHeight="7" refX="6" refY="3.5" orient="auto"><path d="M0,0 L7,3.5 L0,7 Z" fill="#0B1D3A"/></marker>
    <marker id="arrow_green" markerWidth="7" markerHeight="7" refX="6" refY="3.5" orient="auto"><path d="M0,0 L7,3.5 L0,7 Z" fill="#166534"/></marker>
    <marker id="arrow_gold" markerWidth="7" markerHeight="7" refX="6" refY="3.5" orient="auto"><path d="M0,0 L7,3.5 L0,7 Z" fill="#C9962A"/></marker>
  </defs>
  <text x="25" y="28" font-family="JetBrains Mono, monospace" font-size="14" fill="#0B1D3A" font-weight="700">Finance Disbursement Six-Step Wizard</text>
  <rect x="35" y="135" width="90" height="78" rx="2" fill="#F7F4EF" stroke="#0B7285" stroke-width="1.4"/>
  <rect x="35" y="135" width="90" height="22" rx="2" fill="#0B7285"/>
  <text x="80.0" y="150" text-anchor="middle" font-family="JetBrains Mono, monospace" font-size="8" fill="white" font-weight="600">PROGRAM</text>
  <text x="42" y="172" font-family="JetBrains Mono, monospace" font-size="6.8" fill="#6B7280" font-weight="400">select program</text>
  <text x="42" y="184" font-family="JetBrains Mono, monospace" font-size="6.8" fill="#0B7285" font-weight="600">wizard pane</text>
  <rect x="145" y="135" width="90" height="78" rx="2" fill="#F7F4EF" stroke="#0B7285" stroke-width="1.4"/>
  <rect x="145" y="135" width="90" height="22" rx="2" fill="#0B7285"/>
  <text x="190.0" y="150" text-anchor="middle" font-family="JetBrains Mono, monospace" font-size="8" fill="white" font-weight="600">INVOICES</text>
  <text x="152" y="172" font-family="JetBrains Mono, monospace" font-size="6.8" fill="#6B7280" font-weight="400">eligible invoices</text>
  <text x="152" y="184" font-family="JetBrains Mono, monospace" font-size="6.8" fill="#0B7285" font-weight="600">wizard pane</text>
  <rect x="255" y="135" width="90" height="78" rx="2" fill="#F7F4EF" stroke="#0B7285" stroke-width="1.4"/>
  <rect x="255" y="135" width="90" height="22" rx="2" fill="#0B7285"/>
  <text x="300.0" y="150" text-anchor="middle" font-family="JetBrains Mono, monospace" font-size="8" fill="white" font-weight="600">FINANCE</text>
  <text x="262" y="172" font-family="JetBrains Mono, monospace" font-size="6.8" fill="#6B7280" font-weight="400">terms + fees</text>
  <text x="262" y="184" font-family="JetBrains Mono, monospace" font-size="6.8" fill="#0B7285" font-weight="600">wizard pane</text>
  <rect x="365" y="135" width="90" height="78" rx="2" fill="#F7F4EF" stroke="#C9962A" stroke-width="1.4"/>
  <rect x="365" y="135" width="90" height="22" rx="2" fill="#C9962A"/>
  <text x="410.0" y="150" text-anchor="middle" font-family="JetBrains Mono, monospace" font-size="8" fill="white" font-weight="600">ACCOUNTING</text>
  <text x="372" y="172" font-family="JetBrains Mono, monospace" font-size="6.8" fill="#6B7280" font-weight="400">debit/credit</text>
  <text x="372" y="184" font-family="JetBrains Mono, monospace" font-size="6.8" fill="#C9962A" font-weight="600">wizard pane</text>
  <rect x="475" y="135" width="90" height="78" rx="2" fill="#F7F4EF" stroke="#0B7285" stroke-width="1.4"/>
  <rect x="475" y="135" width="90" height="22" rx="2" fill="#0B7285"/>
  <text x="520.0" y="150" text-anchor="middle" font-family="JetBrains Mono, monospace" font-size="8" fill="white" font-weight="600">REPAYMENT</text>
  <text x="482" y="172" font-family="JetBrains Mono, monospace" font-size="6.8" fill="#6B7280" font-weight="400">schedule</text>
  <text x="482" y="184" font-family="JetBrains Mono, monospace" font-size="6.8" fill="#0B7285" font-weight="600">wizard pane</text>
  <rect x="585" y="135" width="90" height="78" rx="2" fill="#F7F4EF" stroke="#C9962A" stroke-width="1.4"/>
  <rect x="585" y="135" width="90" height="22" rx="2" fill="#C9962A"/>
  <text x="630.0" y="150" text-anchor="middle" font-family="JetBrains Mono, monospace" font-size="8" fill="white" font-weight="600">REVIEW</text>
  <text x="592" y="172" font-family="JetBrains Mono, monospace" font-size="6.8" fill="#6B7280" font-weight="400">submit</text>
  <text x="592" y="184" font-family="JetBrains Mono, monospace" font-size="6.8" fill="#C9962A" font-weight="600">wizard pane</text>
  <line x1="125" y1="174" x2="144" y2="174" stroke="#0B1D3A" stroke-width="1.4" marker-end="url(#arrow_navy)"/>
  <line x1="235" y1="174" x2="254" y2="174" stroke="#0B1D3A" stroke-width="1.4" marker-end="url(#arrow_navy)"/>
  <line x1="345" y1="174" x2="364" y2="174" stroke="#0B1D3A" stroke-width="1.4" marker-end="url(#arrow_navy)"/>
  <line x1="455" y1="174" x2="474" y2="174" stroke="#0B1D3A" stroke-width="1.4" marker-end="url(#arrow_navy)"/>
  <line x1="565" y1="174" x2="584" y2="174" stroke="#0B1D3A" stroke-width="1.4" marker-end="url(#arrow_navy)"/>

</svg>
