<svg viewBox="0 0 860 520" xmlns="http://www.w3.org/2000/svg" style="width:100%; height:auto;">

<defs>
  <marker id="arrow_navy" markerWidth="7" markerHeight="7" refX="6" refY="3.5" orient="auto"><path d="M0,0 L7,3.5 L0,7 Z" fill="#0B1D3A"/></marker>
  <marker id="arrow_teal" markerWidth="7" markerHeight="7" refX="6" refY="3.5" orient="auto"><path d="M0,0 L7,3.5 L0,7 Z" fill="#0B7285"/></marker>
  <marker id="arrow_gold" markerWidth="7" markerHeight="7" refX="6" refY="3.5" orient="auto"><path d="M0,0 L7,3.5 L0,7 Z" fill="#C9962A"/></marker>
  <marker id="arrow_green" markerWidth="7" markerHeight="7" refX="6" refY="3.5" orient="auto"><path d="M0,0 L7,3.5 L0,7 Z" fill="#166534"/></marker>
  <marker id="arrow_red" markerWidth="7" markerHeight="7" refX="6" refY="3.5" orient="auto"><path d="M0,0 L7,3.5 L0,7 Z" fill="#B91C1C"/></marker>
  <marker id="arrow_gray" markerWidth="7" markerHeight="7" refX="6" refY="3.5" orient="auto"><path d="M0,0 L7,3.5 L0,7 Z" fill="#6B7280"/></marker>
</defs>
<text x="26" y="28" text-anchor="start" font-family="JetBrains Mono, monospace" font-size="14" fill="#0B1D3A" font-weight="700">Use Case Diagram - Disbursement Module</text>
<rect x="180" y="45" width="540" height="420" rx="2" fill="#FFFFFF" stroke="#0B1D3A" stroke-width="1.2"/>
<text x="450" y="68" text-anchor="middle" font-family="JetBrains Mono, monospace" font-size="8" fill="#0B1D3A" font-weight="700">Disbursement Module Boundary</text>
<circle cx="80" cy="210" r="8" fill="#FFFFFF" stroke="#0B7285" stroke-width="1.2"/>
<line x1="80" y1="218" x2="80" y2="248" stroke="#0B7285" stroke-width="1.2"/>
<line x1="62" y1="230" x2="98" y2="230" stroke="#0B7285" stroke-width="1.2"/>
<line x1="80" y1="248" x2="64" y2="270" stroke="#0B7285" stroke-width="1.2"/>
<line x1="80" y1="248" x2="96" y2="270" stroke="#0B7285" stroke-width="1.2"/>
<text x="80" y="288" text-anchor="middle" font-family="JetBrains Mono, monospace" font-size="7" fill="#0B7285" font-weight="700">Buyer or</text>
<text x="80" y="299" text-anchor="middle" font-family="JetBrains Mono, monospace" font-size="7" fill="#0B7285" font-weight="700">Supplier</text>
<circle cx="790" cy="105" r="8" fill="#FFFFFF" stroke="#0B1D3A" stroke-width="1.2"/>
<line x1="790" y1="113" x2="790" y2="143" stroke="#0B1D3A" stroke-width="1.2"/>
<line x1="772" y1="125" x2="808" y2="125" stroke="#0B1D3A" stroke-width="1.2"/>
<line x1="790" y1="143" x2="774" y2="165" stroke="#0B1D3A" stroke-width="1.2"/>
<line x1="790" y1="143" x2="806" y2="165" stroke="#0B1D3A" stroke-width="1.2"/>
<text x="790" y="183" text-anchor="middle" font-family="JetBrains Mono, monospace" font-size="7" fill="#0B1D3A" font-weight="700">Payment</text>
<text x="790" y="194" text-anchor="middle" font-family="JetBrains Mono, monospace" font-size="7" fill="#0B1D3A" font-weight="700">Gateway</text>
<circle cx="790" cy="330" r="8" fill="#FFFFFF" stroke="#C9962A" stroke-width="1.2"/>
<line x1="790" y1="338" x2="790" y2="368" stroke="#C9962A" stroke-width="1.2"/>
<line x1="772" y1="350" x2="808" y2="350" stroke="#C9962A" stroke-width="1.2"/>
<line x1="790" y1="368" x2="774" y2="390" stroke="#C9962A" stroke-width="1.2"/>
<line x1="790" y1="368" x2="806" y2="390" stroke="#C9962A" stroke-width="1.2"/>
<text x="790" y="408" text-anchor="middle" font-family="JetBrains Mono, monospace" font-size="7" fill="#C9962A" font-weight="700">System</text>
<text x="790" y="419" text-anchor="middle" font-family="JetBrains Mono, monospace" font-size="7" fill="#C9962A" font-weight="700">Scheduler</text>
<ellipse cx="330.0" cy="130.0" rx="80.0" ry="25.0" fill="#FFFFFF" stroke="#C9962A" stroke-width="1.2"/>
<text x="330" y="125" text-anchor="middle" font-family="JetBrains Mono, monospace" font-size="7.2" fill="#1A1A1A" font-weight="600">Request</text>
<text x="330" y="136" text-anchor="middle" font-family="JetBrains Mono, monospace" font-size="7.2" fill="#1A1A1A" font-weight="600">finance</text>
<ellipse cx="330.0" cy="235.0" rx="80.0" ry="25.0" fill="#FFFFFF" stroke="#0B7285" stroke-width="1.2"/>
<text x="330" y="230" text-anchor="middle" font-family="JetBrains Mono, monospace" font-size="7.2" fill="#1A1A1A" font-weight="600">Choose mode</text>
<text x="330" y="241" text-anchor="middle" font-family="JetBrains Mono, monospace" font-size="7.2" fill="#1A1A1A" font-weight="600">INDIVIDUAL/CLUBBED</text>
<ellipse cx="555.0" cy="180.0" rx="80.0" ry="25.0" fill="#FFFFFF" stroke="#0B7285" stroke-width="1.2"/>
<text x="555" y="175" text-anchor="middle" font-family="JetBrains Mono, monospace" font-size="7.2" fill="#1A1A1A" font-weight="600">Run eligibility</text>
<text x="555" y="186" text-anchor="middle" font-family="JetBrains Mono, monospace" font-size="7.2" fill="#1A1A1A" font-weight="600">checks</text>
<ellipse cx="555.0" cy="300.0" rx="80.0" ry="25.0" fill="#FFFFFF" stroke="#0B1D3A" stroke-width="1.2"/>
<text x="555" y="295" text-anchor="middle" font-family="JetBrains Mono, monospace" font-size="7.2" fill="#1A1A1A" font-weight="600">Submit payment</text>
<text x="555" y="306" text-anchor="middle" font-family="JetBrains Mono, monospace" font-size="7.2" fill="#1A1A1A" font-weight="600">instruction</text>
<ellipse cx="555.0" cy="405.0" rx="80.0" ry="25.0" fill="#FFFFFF" stroke="#166534" stroke-width="1.2"/>
<text x="555" y="400" text-anchor="middle" font-family="JetBrains Mono, monospace" font-size="7.2" fill="#1A1A1A" font-weight="600">Process async</text>
<text x="555" y="411" text-anchor="middle" font-family="JetBrains Mono, monospace" font-size="7.2" fill="#1A1A1A" font-weight="600">callback</text>
<ellipse cx="330.0" cy="345.0" rx="80.0" ry="25.0" fill="#FFFFFF" stroke="#C9962A" stroke-width="1.2"/>
<text x="330" y="340" text-anchor="middle" font-family="JetBrains Mono, monospace" font-size="7.2" fill="#1A1A1A" font-weight="600">Automatic</text>
<text x="330" y="351" text-anchor="middle" font-family="JetBrains Mono, monospace" font-size="7.2" fill="#1A1A1A" font-weight="600">disbursement</text>
<line x1="105" y1="250" x2="250" y2="130" stroke="#6B7280" stroke-width="1.2"/>
<line x1="105" y1="250" x2="250" y2="235" stroke="#6B7280" stroke-width="1.2"/>
<line x1="772" y1="145" x2="710" y2="145" stroke="#6B7280" stroke-width="1.2"/>
<line x1="710" y1="145" x2="635" y2="300" stroke="#6B7280" stroke-width="1.2"/>
<line x1="772" y1="370" x2="710" y2="370" stroke="#6B7280" stroke-width="1.2"/>
<path d="M 710,370 L 700,370 L 700,455 L 330,455 L 330,370" fill="none" stroke="#6B7280" stroke-width="1.2"/>
<line x1="410" y1="130" x2="475" y2="180" stroke="#0B7285" stroke-width="1.2" stroke-dasharray="5 3" marker-end="url(#arrow_teal)"/>
<text x="448" y="148" text-anchor="middle" font-family="JetBrains Mono, monospace" font-size="6.4" fill="#0B7285" font-weight="400">&lt;&lt;include&gt;&gt;</text>
<line x1="410" y1="345" x2="475" y2="180" stroke="#0B7285" stroke-width="1.2" stroke-dasharray="5 3" marker-end="url(#arrow_teal)"/>
<text x="430" y="278" text-anchor="middle" font-family="JetBrains Mono, monospace" font-size="6.4" fill="#0B7285" font-weight="400">&lt;&lt;include&gt;&gt;</text>
<line x1="555" y1="205" x2="555" y2="275" stroke="#0B1D3A" stroke-width="1.2" stroke-dasharray="5 3" marker-end="url(#arrow_navy)"/>
<text x="592" y="244" text-anchor="middle" font-family="JetBrains Mono, monospace" font-size="6.4" fill="#0B1D3A" font-weight="400">&lt;&lt;include&gt;&gt;</text>
<line x1="555" y1="325" x2="555" y2="380" stroke="#166534" stroke-width="1.2" stroke-dasharray="5 3" marker-end="url(#arrow_green)"/>
<text x="592" y="358" text-anchor="middle" font-family="JetBrains Mono, monospace" font-size="6.4" fill="#166534" font-weight="400">webhook result</text>
</svg>
