<svg viewBox="0 0 750 390" xmlns="http://www.w3.org/2000/svg" style="width:100%; height:auto;">

  <defs>
    <marker id="arrow_navy" markerWidth="7" markerHeight="7" refX="6" refY="3.5" orient="auto"><path d="M0,0 L7,3.5 L0,7 Z" fill="#0B1D3A"/></marker>
    <marker id="arrow_teal" markerWidth="7" markerHeight="7" refX="6" refY="3.5" orient="auto"><path d="M0,0 L7,3.5 L0,7 Z" fill="#0B7285"/></marker>
    <marker id="arrow_gold" markerWidth="7" markerHeight="7" refX="6" refY="3.5" orient="auto"><path d="M0,0 L7,3.5 L0,7 Z" fill="#C9962A"/></marker>
    <marker id="arrow_green" markerWidth="7" markerHeight="7" refX="6" refY="3.5" orient="auto"><path d="M0,0 L7,3.5 L0,7 Z" fill="#166534"/></marker>
  </defs>

  <text x="25" y="28" font-family="JetBrains Mono, monospace" font-size="14" fill="#0B1D3A" font-weight="700">Skills Acquired During the Internship</text>
  <rect x="300" y="170" width="150" height="80" rx="2" fill="#F7F4EF" stroke="#0B1D3A" stroke-width="1.4"/>
  <rect x="300" y="170" width="150" height="22" rx="2" fill="#162B52"/>
  <text x="375.0" y="185" text-anchor="middle" font-family="JetBrains Mono, monospace" font-size="8" fill="white" font-weight="600">INTERNSHIP_GROWTH</text>
  <text x="307" y="207" font-family="JetBrains Mono, monospace" font-size="6.8" fill="#6B7280" font-weight="400">technical practice</text>
  <text x="307" y="219" font-family="JetBrains Mono, monospace" font-size="6.8" fill="#0B7285" font-weight="600">banking context</text>
  <text x="307" y="231" font-family="JetBrains Mono, monospace" font-size="6.8" fill="#C9962A" font-weight="600">team rhythm</text>
  <rect x="40" y="72" width="130" height="74" rx="2" fill="#F7F4EF" stroke="#0B7285" stroke-width="1.4"/>
  <rect x="40" y="72" width="130" height="22" rx="2" fill="#0B7285"/>
  <text x="105.0" y="87" text-anchor="middle" font-family="JetBrains Mono, monospace" font-size="8" fill="white" font-weight="600">BACKEND</text>
  <text x="47" y="109" font-family="JetBrains Mono, monospace" font-size="6.8" fill="#6B7280" font-weight="400">Spring Boot</text>
  <text x="47" y="121" font-family="JetBrains Mono, monospace" font-size="6.8" fill="#0B7285" font-weight="600">JPA + OAuth2</text>
  <rect x="300" y="72" width="130" height="74" rx="2" fill="#F7F4EF" stroke="#0B7285" stroke-width="1.4"/>
  <rect x="300" y="72" width="130" height="22" rx="2" fill="#0B7285"/>
  <text x="365.0" y="87" text-anchor="middle" font-family="JetBrains Mono, monospace" font-size="8" fill="white" font-weight="600">FRONTEND</text>
  <text x="307" y="109" font-family="JetBrains Mono, monospace" font-size="6.8" fill="#6B7280" font-weight="400">React + TS</text>
  <text x="307" y="121" font-family="JetBrains Mono, monospace" font-size="6.8" fill="#0B7285" font-weight="600">forms + services</text>
  <rect x="580" y="72" width="130" height="74" rx="2" fill="#F7F4EF" stroke="#C9962A" stroke-width="1.4"/>
  <rect x="580" y="72" width="130" height="22" rx="2" fill="#C9962A"/>
  <text x="645.0" y="87" text-anchor="middle" font-family="JetBrains Mono, monospace" font-size="8" fill="white" font-weight="600">DEVOPS</text>
  <text x="587" y="109" font-family="JetBrains Mono, monospace" font-size="6.8" fill="#6B7280" font-weight="400">Docker stack</text>
  <text x="587" y="121" font-family="JetBrains Mono, monospace" font-size="6.8" fill="#C9962A" font-weight="600">Git + PRs</text>
  <rect x="40" y="278" width="130" height="74" rx="2" fill="#F7F4EF" stroke="#166534" stroke-width="1.4"/>
  <rect x="40" y="278" width="130" height="22" rx="2" fill="#166534"/>
  <text x="105.0" y="293" text-anchor="middle" font-family="JetBrains Mono, monospace" font-size="8" fill="white" font-weight="600">DOMAIN</text>
  <text x="47" y="315" font-family="JetBrains Mono, monospace" font-size="6.8" fill="#6B7280" font-weight="400">SCF products</text>
  <text x="47" y="327" font-family="JetBrains Mono, monospace" font-size="6.8" fill="#166534" font-weight="600">program logic</text>
  <rect x="300" y="278" width="130" height="74" rx="2" fill="#F7F4EF" stroke="#C9962A" stroke-width="1.4"/>
  <rect x="300" y="278" width="130" height="22" rx="2" fill="#C9962A"/>
  <text x="365.0" y="293" text-anchor="middle" font-family="JetBrains Mono, monospace" font-size="8" fill="white" font-weight="600">COLLAB</text>
  <text x="307" y="315" font-family="JetBrains Mono, monospace" font-size="6.8" fill="#6B7280" font-weight="400">Scrum</text>
  <text x="307" y="327" font-family="JetBrains Mono, monospace" font-size="6.8" fill="#C9962A" font-weight="600">PO refinement</text>
  <rect x="580" y="278" width="130" height="74" rx="2" fill="#F7F4EF" stroke="#166534" stroke-width="1.4"/>
  <rect x="580" y="278" width="130" height="22" rx="2" fill="#166534"/>
  <text x="645.0" y="293" text-anchor="middle" font-family="JetBrains Mono, monospace" font-size="8" fill="white" font-weight="600">QUALITY</text>
  <text x="587" y="315" font-family="JetBrains Mono, monospace" font-size="6.8" fill="#6B7280" font-weight="400">review comments</text>
  <text x="587" y="327" font-family="JetBrains Mono, monospace" font-size="6.8" fill="#166534" font-weight="600">tester feedback</text>
  <line x1="170" y1="109" x2="299" y2="194" stroke="#0B7285" stroke-width="1.4" marker-end="url(#arrow_teal)"/>
  <line x1="365" y1="146" x2="374" y2="169" stroke="#0B7285" stroke-width="1.4" marker-end="url(#arrow_teal)"/>
  <line x1="580" y1="109" x2="451" y2="194" stroke="#C9962A" stroke-width="1.4" marker-end="url(#arrow_gold)"/>
  <line x1="170" y1="315" x2="299" y2="226" stroke="#166534" stroke-width="1.4" marker-end="url(#arrow_green)"/>
  <line x1="365" y1="278" x2="374" y2="251" stroke="#C9962A" stroke-width="1.4" marker-end="url(#arrow_gold)"/>
  <line x1="580" y1="315" x2="451" y2="226" stroke="#166534" stroke-width="1.4" marker-end="url(#arrow_green)"/>

</svg>
