<svg viewBox="0 0 780 360" xmlns="http://www.w3.org/2000/svg" style="width:100%; height:auto;">

<defs>
  <marker id="arrow_navy" markerWidth="7" markerHeight="7" refX="6" refY="3.5" orient="auto"><path d="M0,0 L7,3.5 L0,7 Z" fill="#0B1D3A"/></marker>
  <marker id="arrow_teal" markerWidth="7" markerHeight="7" refX="6" refY="3.5" orient="auto"><path d="M0,0 L7,3.5 L0,7 Z" fill="#0B7285"/></marker>
  <marker id="arrow_gold" markerWidth="7" markerHeight="7" refX="6" refY="3.5" orient="auto"><path d="M0,0 L7,3.5 L0,7 Z" fill="#C9962A"/></marker>
  <marker id="arrow_green" markerWidth="7" markerHeight="7" refX="6" refY="3.5" orient="auto"><path d="M0,0 L7,3.5 L0,7 Z" fill="#166534"/></marker>
  <marker id="arrow_red" markerWidth="7" markerHeight="7" refX="6" refY="3.5" orient="auto"><path d="M0,0 L7,3.5 L0,7 Z" fill="#B91C1C"/></marker>
  <marker id="arrow_gray" markerWidth="7" markerHeight="7" refX="6" refY="3.5" orient="auto"><path d="M0,0 L7,3.5 L0,7 Z" fill="#6B7280"/></marker>
</defs>
<text x="26" y="28" text-anchor="start" font-family="JetBrains Mono, monospace" font-size="14" fill="#0B1D3A" font-weight="700">Skills Acquired During the Internship</text>
<rect x="285" y="72" width="210" height="56" rx="2" fill="#F7F4EF" stroke="#0B1D3A" stroke-width="1.2"/>
<rect x="285" y="72" width="210" height="22" rx="2" fill="#162B52" stroke="#162B52" stroke-width="1.0"/>
<text x="390.0" y="87" text-anchor="middle" font-family="JetBrains Mono, monospace" font-size="8.2" fill="#FFFFFF" font-weight="700">Internship Growth</text>
<text x="293" y="110" text-anchor="start" font-family="JetBrains Mono, monospace" font-size="7.2" fill="#6B7280" font-weight="400">technical, domain, and process learning</text>
<line x1="390" y1="128" x2="390" y2="176" stroke="#0B1D3A" stroke-width="1.2"/>
<line x1="75" y1="176" x2="705" y2="176" stroke="#0B1D3A" stroke-width="1.2"/>
<rect x="19" y="220" width="112" height="76" rx="2" fill="#F7F4EF" stroke="#0B7285" stroke-width="1.2"/>
<rect x="19" y="220" width="112" height="22" rx="2" fill="#0B7285" stroke="#0B7285" stroke-width="1.0"/>
<text x="75.0" y="235" text-anchor="middle" font-family="JetBrains Mono, monospace" font-size="8.2" fill="#FFFFFF" font-weight="700">Backend</text>
<text x="27" y="258" text-anchor="start" font-family="JetBrains Mono, monospace" font-size="7.2" fill="#6B7280" font-weight="400">Spring Boot</text>
<text x="27" y="270" text-anchor="start" font-family="JetBrains Mono, monospace" font-size="7.2" fill="#6B7280" font-weight="400">JPA/OAuth2</text>
<line x1="75" y1="176" x2="75" y2="219" stroke="#0B7285" stroke-width="1.2" marker-end="url(#arrow_teal)"/>
<rect x="145" y="220" width="112" height="76" rx="2" fill="#F7F4EF" stroke="#0B7285" stroke-width="1.2"/>
<rect x="145" y="220" width="112" height="22" rx="2" fill="#0B7285" stroke="#0B7285" stroke-width="1.0"/>
<text x="201.0" y="235" text-anchor="middle" font-family="JetBrains Mono, monospace" font-size="8.2" fill="#FFFFFF" font-weight="700">Frontend</text>
<text x="153" y="258" text-anchor="start" font-family="JetBrains Mono, monospace" font-size="7.2" fill="#6B7280" font-weight="400">React</text>
<text x="153" y="270" text-anchor="start" font-family="JetBrains Mono, monospace" font-size="7.2" fill="#6B7280" font-weight="400">TypeScript</text>
<line x1="201" y1="176" x2="201" y2="219" stroke="#0B7285" stroke-width="1.2" marker-end="url(#arrow_teal)"/>
<rect x="271" y="220" width="112" height="76" rx="2" fill="#F7F4EF" stroke="#C9962A" stroke-width="1.2"/>
<rect x="271" y="220" width="112" height="22" rx="2" fill="#C9962A" stroke="#C9962A" stroke-width="1.0"/>
<text x="327.0" y="235" text-anchor="middle" font-family="JetBrains Mono, monospace" font-size="8.2" fill="#FFFFFF" font-weight="700">DevOps</text>
<text x="279" y="258" text-anchor="start" font-family="JetBrains Mono, monospace" font-size="7.2" fill="#6B7280" font-weight="400">Docker</text>
<text x="279" y="270" text-anchor="start" font-family="JetBrains Mono, monospace" font-size="7.2" fill="#6B7280" font-weight="400">Git / PR</text>
<line x1="327" y1="176" x2="327" y2="219" stroke="#C9962A" stroke-width="1.2" marker-end="url(#arrow_gold)"/>
<rect x="397" y="220" width="112" height="76" rx="2" fill="#F7F4EF" stroke="#166534" stroke-width="1.2"/>
<rect x="397" y="220" width="112" height="22" rx="2" fill="#166534" stroke="#166534" stroke-width="1.0"/>
<text x="453.0" y="235" text-anchor="middle" font-family="JetBrains Mono, monospace" font-size="8.2" fill="#FFFFFF" font-weight="700">Banking</text>
<text x="405" y="258" text-anchor="start" font-family="JetBrains Mono, monospace" font-size="7.2" fill="#6B7280" font-weight="400">SCF domain</text>
<text x="405" y="270" text-anchor="start" font-family="JetBrains Mono, monospace" font-size="7.2" fill="#6B7280" font-weight="400">program logic</text>
<line x1="453" y1="176" x2="453" y2="219" stroke="#166534" stroke-width="1.2" marker-end="url(#arrow_green)"/>
<rect x="523" y="220" width="112" height="76" rx="2" fill="#F7F4EF" stroke="#C9962A" stroke-width="1.2"/>
<rect x="523" y="220" width="112" height="22" rx="2" fill="#C9962A" stroke="#C9962A" stroke-width="1.0"/>
<text x="579.0" y="235" text-anchor="middle" font-family="JetBrains Mono, monospace" font-size="8.2" fill="#FFFFFF" font-weight="700">Collaboration</text>
<text x="531" y="258" text-anchor="start" font-family="JetBrains Mono, monospace" font-size="7.2" fill="#6B7280" font-weight="400">Scrum</text>
<text x="531" y="270" text-anchor="start" font-family="JetBrains Mono, monospace" font-size="7.2" fill="#6B7280" font-weight="400">PO refinement</text>
<line x1="579" y1="176" x2="579" y2="219" stroke="#C9962A" stroke-width="1.2" marker-end="url(#arrow_gold)"/>
<rect x="649" y="220" width="112" height="76" rx="2" fill="#F7F4EF" stroke="#166534" stroke-width="1.2"/>
<rect x="649" y="220" width="112" height="22" rx="2" fill="#166534" stroke="#166534" stroke-width="1.0"/>
<text x="705.0" y="235" text-anchor="middle" font-family="JetBrains Mono, monospace" font-size="8.2" fill="#FFFFFF" font-weight="700">Quality</text>
<text x="657" y="258" text-anchor="start" font-family="JetBrains Mono, monospace" font-size="7.2" fill="#6B7280" font-weight="400">review</text>
<text x="657" y="270" text-anchor="start" font-family="JetBrains Mono, monospace" font-size="7.2" fill="#6B7280" font-weight="400">testing feedback</text>
<line x1="705" y1="176" x2="705" y2="219" stroke="#166534" stroke-width="1.2" marker-end="url(#arrow_green)"/>
</svg>
