<svg viewBox="0 0 750 340" xmlns="http://www.w3.org/2000/svg" style="width:100%; height:auto;">

  <defs>
    <marker id="arrow_navy" markerWidth="7" markerHeight="7" refX="6" refY="3.5" orient="auto"><path d="M0,0 L7,3.5 L0,7 Z" fill="#0B1D3A"/></marker>
    <marker id="arrow_teal" markerWidth="7" markerHeight="7" refX="6" refY="3.5" orient="auto"><path d="M0,0 L7,3.5 L0,7 Z" fill="#0B7285"/></marker>
    <marker id="arrow_gold" markerWidth="7" markerHeight="7" refX="6" refY="3.5" orient="auto"><path d="M0,0 L7,3.5 L0,7 Z" fill="#C9962A"/></marker>
    <marker id="arrow_green" markerWidth="7" markerHeight="7" refX="6" refY="3.5" orient="auto"><path d="M0,0 L7,3.5 L0,7 Z" fill="#166534"/></marker>
  </defs>

  <text x="25" y="28" font-family="JetBrains Mono, monospace" font-size="14" fill="#0B1D3A" font-weight="700">Recommendations for Future Development</text>
  <rect x="40" y="125" width="125" height="82" rx="2" fill="#F7F4EF" stroke="#0B7285" stroke-width="1.4"/>
  <rect x="40" y="125" width="125" height="22" rx="2" fill="#0B7285"/>
  <text x="102.5" y="140" text-anchor="middle" font-family="JetBrains Mono, monospace" font-size="8" fill="white" font-weight="600">DISBURSEMENT</text>
  <text x="47" y="162" font-family="JetBrains Mono, monospace" font-size="6.8" fill="#6B7280" font-weight="400">native module</text>
  <text x="47" y="174" font-family="JetBrains Mono, monospace" font-size="6.8" fill="#0B7285" font-weight="600">final API</text>
  <rect x="220" y="125" width="125" height="82" rx="2" fill="#F7F4EF" stroke="#C9962A" stroke-width="1.4"/>
  <rect x="220" y="125" width="125" height="22" rx="2" fill="#C9962A"/>
  <text x="282.5" y="140" text-anchor="middle" font-family="JetBrains Mono, monospace" font-size="8" fill="white" font-weight="600">ASYNC_FLOWS</text>
  <text x="227" y="162" font-family="JetBrains Mono, monospace" font-size="6.8" fill="#6B7280" font-weight="400">events</text>
  <text x="227" y="174" font-family="JetBrains Mono, monospace" font-size="6.8" fill="#C9962A" font-weight="600">Kafka/RabbitMQ</text>
  <rect x="400" y="125" width="125" height="82" rx="2" fill="#F7F4EF" stroke="#166534" stroke-width="1.4"/>
  <rect x="400" y="125" width="125" height="22" rx="2" fill="#166534"/>
  <text x="462.5" y="140" text-anchor="middle" font-family="JetBrains Mono, monospace" font-size="8" fill="white" font-weight="600">MOBILE</text>
  <text x="407" y="162" font-family="JetBrains Mono, monospace" font-size="6.8" fill="#6B7280" font-weight="400">CP access</text>
  <text x="407" y="174" font-family="JetBrains Mono, monospace" font-size="6.8" fill="#166534" font-weight="600">status tracking</text>
  <rect x="580" y="125" width="125" height="82" rx="2" fill="#F7F4EF" stroke="#0B1D3A" stroke-width="1.4"/>
  <rect x="580" y="125" width="125" height="22" rx="2" fill="#162B52"/>
  <text x="642.5" y="140" text-anchor="middle" font-family="JetBrains Mono, monospace" font-size="8" fill="white" font-weight="600">ANALYTICS</text>
  <text x="587" y="162" font-family="JetBrains Mono, monospace" font-size="6.8" fill="#6B7280" font-weight="400">dashboards</text>
  <text x="587" y="174" font-family="JetBrains Mono, monospace" font-size="6.8" fill="#0B7285" font-weight="600">portfolio view</text>
  <line x1="165" y1="166" x2="219" y2="166" stroke="#0B1D3A" stroke-width="1.4" marker-end="url(#arrow_navy)"/>
  <line x1="345" y1="166" x2="399" y2="166" stroke="#0B1D3A" stroke-width="1.4" marker-end="url(#arrow_navy)"/>
  <line x1="525" y1="166" x2="579" y2="166" stroke="#0B1D3A" stroke-width="1.4" marker-end="url(#arrow_navy)"/>
  <rect x="85" y="255" width="580" height="54" rx="2" fill="#F0EDE8" stroke="#D4D0C8" stroke-width="1"/>
  <text x="375" y="276" text-anchor="middle" font-family="JetBrains Mono, monospace" font-size="8" fill="#0B1D3A" font-weight="600">common principle</text>
  <text x="126" y="294" font-family="JetBrains Mono, monospace" font-size="7.2" fill="#6B7280">Keep the platform configurable, governed, traceable, and useful for bank operations.</text>

</svg>
