<svg viewBox="0 0 780 340" xmlns="http://www.w3.org/2000/svg" style="width:100%; height:auto;">

<defs>
  <marker id="arrow_navy" markerWidth="7" markerHeight="7" refX="6" refY="3.5" orient="auto"><path d="M0,0 L7,3.5 L0,7 Z" fill="#0B1D3A"/></marker>
  <marker id="arrow_teal" markerWidth="7" markerHeight="7" refX="6" refY="3.5" orient="auto"><path d="M0,0 L7,3.5 L0,7 Z" fill="#0B7285"/></marker>
  <marker id="arrow_gold" markerWidth="7" markerHeight="7" refX="6" refY="3.5" orient="auto"><path d="M0,0 L7,3.5 L0,7 Z" fill="#C9962A"/></marker>
  <marker id="arrow_green" markerWidth="7" markerHeight="7" refX="6" refY="3.5" orient="auto"><path d="M0,0 L7,3.5 L0,7 Z" fill="#166534"/></marker>
  <marker id="arrow_red" markerWidth="7" markerHeight="7" refX="6" refY="3.5" orient="auto"><path d="M0,0 L7,3.5 L0,7 Z" fill="#B91C1C"/></marker>
  <marker id="arrow_gray" markerWidth="7" markerHeight="7" refX="6" refY="3.5" orient="auto"><path d="M0,0 L7,3.5 L0,7 Z" fill="#6B7280"/></marker>
</defs>
<text x="26" y="28" text-anchor="start" font-family="JetBrains Mono, monospace" font-size="14" fill="#0B1D3A" font-weight="700">Recommendations for Future Development</text>
<rect x="85" y="125" width="125" height="72" rx="2" fill="#F7F4EF" stroke="#0B7285" stroke-width="1.2"/>
<rect x="85" y="125" width="125" height="22" rx="2" fill="#0B7285" stroke="#0B7285" stroke-width="1.0"/>
<text x="147.5" y="140" text-anchor="middle" font-family="JetBrains Mono, monospace" font-size="8.2" fill="#FFFFFF" font-weight="700">Disbursement</text>
<text x="93" y="163" text-anchor="start" font-family="JetBrains Mono, monospace" font-size="7.2" fill="#6B7280" font-weight="400">native module</text>
<rect x="260" y="125" width="125" height="72" rx="2" fill="#F7F4EF" stroke="#C9962A" stroke-width="1.2"/>
<rect x="260" y="125" width="125" height="22" rx="2" fill="#C9962A" stroke="#C9962A" stroke-width="1.0"/>
<text x="322.5" y="140" text-anchor="middle" font-family="JetBrains Mono, monospace" font-size="8.2" fill="#FFFFFF" font-weight="700">Async Flows</text>
<text x="268" y="163" text-anchor="start" font-family="JetBrains Mono, monospace" font-size="7.2" fill="#6B7280" font-weight="400">Kafka/RabbitMQ</text>
<rect x="435" y="125" width="125" height="72" rx="2" fill="#F7F4EF" stroke="#166534" stroke-width="1.2"/>
<rect x="435" y="125" width="125" height="22" rx="2" fill="#166534" stroke="#166534" stroke-width="1.0"/>
<text x="497.5" y="140" text-anchor="middle" font-family="JetBrains Mono, monospace" font-size="8.2" fill="#FFFFFF" font-weight="700">Mobile</text>
<text x="443" y="163" text-anchor="start" font-family="JetBrains Mono, monospace" font-size="7.2" fill="#6B7280" font-weight="400">counterparty access</text>
<rect x="610" y="125" width="125" height="72" rx="2" fill="#F7F4EF" stroke="#0B1D3A" stroke-width="1.2"/>
<rect x="610" y="125" width="125" height="22" rx="2" fill="#0B1D3A" stroke="#0B1D3A" stroke-width="1.0"/>
<text x="672.5" y="140" text-anchor="middle" font-family="JetBrains Mono, monospace" font-size="8.2" fill="#FFFFFF" font-weight="700">Analytics</text>
<text x="618" y="163" text-anchor="start" font-family="JetBrains Mono, monospace" font-size="7.2" fill="#6B7280" font-weight="400">portfolio view</text>
<line x1="210" y1="161" x2="259" y2="161" stroke="#0B1D3A" stroke-width="1.2" marker-end="url(#arrow_navy)"/>
<line x1="385" y1="161" x2="434" y2="161" stroke="#0B1D3A" stroke-width="1.2" marker-end="url(#arrow_navy)"/>
<line x1="560" y1="161" x2="609" y2="161" stroke="#0B1D3A" stroke-width="1.2" marker-end="url(#arrow_navy)"/>
<rect x="120" y="250" width="540" height="50" rx="2" fill="#F0EDE8" stroke="#D4D0C8" stroke-width="1.2"/>
<text x="390" y="272" text-anchor="middle" font-family="JetBrains Mono, monospace" font-size="8" fill="#0B1D3A" font-weight="700">Common direction</text>
<text x="390" y="290" text-anchor="middle" font-family="JetBrains Mono, monospace" font-size="6.8" fill="#6B7280" font-weight="400">Keep the platform governed, traceable, configurable, and useful for bank operations.</text>
</svg>
