<svg viewBox="0 0 780 420" xmlns="http://www.w3.org/2000/svg" style="width:100%; height:auto;">

<defs>
  <marker id="arrow_navy" markerWidth="7" markerHeight="7" refX="6" refY="3.5" orient="auto"><path d="M0,0 L7,3.5 L0,7 Z" fill="#0B1D3A"/></marker>
  <marker id="arrow_teal" markerWidth="7" markerHeight="7" refX="6" refY="3.5" orient="auto"><path d="M0,0 L7,3.5 L0,7 Z" fill="#0B7285"/></marker>
  <marker id="arrow_gold" markerWidth="7" markerHeight="7" refX="6" refY="3.5" orient="auto"><path d="M0,0 L7,3.5 L0,7 Z" fill="#C9962A"/></marker>
  <marker id="arrow_green" markerWidth="7" markerHeight="7" refX="6" refY="3.5" orient="auto"><path d="M0,0 L7,3.5 L0,7 Z" fill="#166534"/></marker>
  <marker id="arrow_red" markerWidth="7" markerHeight="7" refX="6" refY="3.5" orient="auto"><path d="M0,0 L7,3.5 L0,7 Z" fill="#B91C1C"/></marker>
  <marker id="arrow_gray" markerWidth="7" markerHeight="7" refX="6" refY="3.5" orient="auto"><path d="M0,0 L7,3.5 L0,7 Z" fill="#6B7280"/></marker>
</defs>
<text x="26" y="28" text-anchor="start" font-family="JetBrains Mono, monospace" font-size="14" fill="#0B1D3A" font-weight="700">Skills Acquired During the Internship</text>
<circle cx="390" cy="210" r="64" fill="#F7F4EF" stroke="#0B1D3A" stroke-width="1.2"/>
<text x="390" y="204" text-anchor="middle" font-family="JetBrains Mono, monospace" font-size="9" fill="#0B1D3A" font-weight="700">Internship</text>
<text x="390" y="221" text-anchor="middle" font-family="JetBrains Mono, monospace" font-size="9" fill="#0B7285" font-weight="700">Growth</text>
<rect x="55" y="60" width="130" height="70" rx="2" fill="#F7F4EF" stroke="#0B7285" stroke-width="1.2"/>
<rect x="55" y="60" width="130" height="22" rx="2" fill="#0B7285" stroke="#0B7285" stroke-width="1.0"/>
<text x="120.0" y="75" text-anchor="middle" font-family="JetBrains Mono, monospace" font-size="8.2" fill="#FFFFFF" font-weight="700">Backend</text>
<text x="63" y="98" text-anchor="start" font-family="JetBrains Mono, monospace" font-size="7.2" fill="#6B7280" font-weight="400">Spring Boot</text>
<text x="63" y="110" text-anchor="start" font-family="JetBrains Mono, monospace" font-size="7.2" fill="#6B7280" font-weight="400">JPA/OAuth2</text>
<line x1="390" y1="210" x2="120" y2="95" stroke="#0B7285" stroke-width="1.2" marker-end="url(#arrow_teal)"/>
<rect x="325" y="37" width="130" height="70" rx="2" fill="#F7F4EF" stroke="#0B7285" stroke-width="1.2"/>
<rect x="325" y="37" width="130" height="22" rx="2" fill="#0B7285" stroke="#0B7285" stroke-width="1.0"/>
<text x="390.0" y="52" text-anchor="middle" font-family="JetBrains Mono, monospace" font-size="8.2" fill="#FFFFFF" font-weight="700">Frontend</text>
<text x="333" y="75" text-anchor="start" font-family="JetBrains Mono, monospace" font-size="7.2" fill="#6B7280" font-weight="400">React</text>
<text x="333" y="87" text-anchor="start" font-family="JetBrains Mono, monospace" font-size="7.2" fill="#6B7280" font-weight="400">TypeScript</text>
<line x1="390" y1="210" x2="390" y2="72" stroke="#0B7285" stroke-width="1.2" marker-end="url(#arrow_teal)"/>
<rect x="595" y="60" width="130" height="70" rx="2" fill="#F7F4EF" stroke="#C9962A" stroke-width="1.2"/>
<rect x="595" y="60" width="130" height="22" rx="2" fill="#C9962A" stroke="#C9962A" stroke-width="1.0"/>
<text x="660.0" y="75" text-anchor="middle" font-family="JetBrains Mono, monospace" font-size="8.2" fill="#FFFFFF" font-weight="700">DevOps</text>
<text x="603" y="98" text-anchor="start" font-family="JetBrains Mono, monospace" font-size="7.2" fill="#6B7280" font-weight="400">Docker</text>
<text x="603" y="110" text-anchor="start" font-family="JetBrains Mono, monospace" font-size="7.2" fill="#6B7280" font-weight="400">Git / PR</text>
<line x1="390" y1="210" x2="660" y2="95" stroke="#C9962A" stroke-width="1.2" marker-end="url(#arrow_gold)"/>
<rect x="55" y="280" width="130" height="70" rx="2" fill="#F7F4EF" stroke="#166534" stroke-width="1.2"/>
<rect x="55" y="280" width="130" height="22" rx="2" fill="#166534" stroke="#166534" stroke-width="1.0"/>
<text x="120.0" y="295" text-anchor="middle" font-family="JetBrains Mono, monospace" font-size="8.2" fill="#FFFFFF" font-weight="700">Banking</text>
<text x="63" y="318" text-anchor="start" font-family="JetBrains Mono, monospace" font-size="7.2" fill="#6B7280" font-weight="400">SCF domain</text>
<text x="63" y="330" text-anchor="start" font-family="JetBrains Mono, monospace" font-size="7.2" fill="#6B7280" font-weight="400">program logic</text>
<line x1="390" y1="210" x2="120" y2="315" stroke="#166534" stroke-width="1.2" marker-end="url(#arrow_green)"/>
<rect x="325" y="307" width="130" height="70" rx="2" fill="#F7F4EF" stroke="#C9962A" stroke-width="1.2"/>
<rect x="325" y="307" width="130" height="22" rx="2" fill="#C9962A" stroke="#C9962A" stroke-width="1.0"/>
<text x="390.0" y="322" text-anchor="middle" font-family="JetBrains Mono, monospace" font-size="8.2" fill="#FFFFFF" font-weight="700">Collaboration</text>
<text x="333" y="345" text-anchor="start" font-family="JetBrains Mono, monospace" font-size="7.2" fill="#6B7280" font-weight="400">Scrum</text>
<text x="333" y="357" text-anchor="start" font-family="JetBrains Mono, monospace" font-size="7.2" fill="#6B7280" font-weight="400">PO refinement</text>
<line x1="390" y1="210" x2="390" y2="342" stroke="#C9962A" stroke-width="1.2" marker-end="url(#arrow_gold)"/>
<rect x="595" y="280" width="130" height="70" rx="2" fill="#F7F4EF" stroke="#166534" stroke-width="1.2"/>
<rect x="595" y="280" width="130" height="22" rx="2" fill="#166534" stroke="#166534" stroke-width="1.0"/>
<text x="660.0" y="295" text-anchor="middle" font-family="JetBrains Mono, monospace" font-size="8.2" fill="#FFFFFF" font-weight="700">Quality</text>
<text x="603" y="318" text-anchor="start" font-family="JetBrains Mono, monospace" font-size="7.2" fill="#6B7280" font-weight="400">review</text>
<text x="603" y="330" text-anchor="start" font-family="JetBrains Mono, monospace" font-size="7.2" fill="#6B7280" font-weight="400">testing feedback</text>
<line x1="390" y1="210" x2="660" y2="315" stroke="#166534" stroke-width="1.2" marker-end="url(#arrow_green)"/>
</svg>
